<svg width="25" height="25" viewBox="0 0 25 25" fill="none" xmlns="http://www.w3.org/2000/svg">
<g clip-path="url(#clip0_0_167)">
<path d="M12.582 12.3438V12.3047L10.582 9.73443C10.582 9.73443 10.1133 9.79693 9.60547 10.3243C9.25391 10.6876 0.14844 19.6641 0.0976589 19.7344C-0.175779 20.1251 0.160159 20.0001 0.71094 19.8008C0.74219 19.8008 5.1836 18.3711 5.1836 18.3711C5.20313 18.3477 5.17969 18.3672 5.20703 18.3477C5.19141 18.1485 5.17578 17.3243 5.16797 17.2657C5.14453 17.0626 5.25391 16.9961 5.44141 16.918L9.0586 15.5977C9.08203 15.5665 12.5156 12.4063 12.582 12.3438ZM18.8359 17.0352C19.3555 17.6641 19.6445 17.5547 20.0391 17.3985C20.1641 17.3516 24.5469 15.5391 24.6406 15.4883C24.9531 15.3204 24.5742 14.836 24.3594 14.5743C24.2773 14.4766 16.3477 4.98052 16.2656 4.87506C15.8867 4.39849 15.707 4.37115 14.7656 4.37506C14.3672 4.37506 10.5938 4.39459 10.2148 4.39849C9.46485 4.4024 8.92969 4.38677 9.46485 5.05865C9.76563 5.42974 18.6133 16.7657 18.8359 17.0352ZM24.8008 17.0977C24.7109 17.086 23.8398 16.9141 23.3164 16.8165C23.3164 16.8165 18.8242 18.7852 18.7266 18.8321C18.1016 19.1172 17.6758 18.7071 17.293 18.2618L15.0625 15.3711C14.8516 15.336 12.7031 14.9961 12.5117 15.0079C12.3906 15.0157 12.1367 15.0391 11.9492 15.1211C11.7578 15.2032 6.27735 17.1836 6.08203 17.2579C5.88281 17.336 5.63672 17.3985 5.64844 17.5547C5.65625 17.6524 5.72656 17.6563 5.82813 17.6915C5.9336 17.7227 17.582 20.3321 17.8594 20.3907C18.4688 20.5196 19.3633 20.8008 19.9531 20.4571C20.0352 20.4102 24.7891 17.4727 24.8672 17.418C25.0781 17.2618 25.0352 17.1524 24.8008 17.0977Z" fill="black"/>
</g>
<defs>
<clipPath id="clip0_0_167">
<rect width="25" height="25" fill="white"/>
</clipPath>
</defs>
</svg>
