<svg width="25" height="25" viewBox="0 0 25 25" fill="none" xmlns="http://www.w3.org/2000/svg">
<g clip-path="url(#clip0_0_174)">
<path d="M20.5786 22.8613C20.52 22.4854 20.5151 22.4902 20.1099 22.4902C15.2368 22.5 14.6509 22.373 14.6069 22.3633C14.0063 22.2803 13.6011 21.8506 13.5815 21.2354C13.5767 21.1572 13.5718 17.7393 13.5327 14.9316C13.5278 14.7021 13.6108 14.6191 13.8208 14.5654C14.4312 14.4189 15.0366 14.2676 15.6421 14.0918C15.8521 14.0283 15.9741 14.082 16.0522 14.2627C16.272 14.7656 16.4819 15.2686 16.6968 15.7715C16.7749 15.9521 16.7017 15.9863 16.5308 15.9863C16.0425 15.9766 15.5542 15.9814 15.0464 15.9814V17.2998H20.7104C20.6421 16.8359 20.5786 16.416 20.5151 15.957C20.1733 15.957 19.8413 15.9766 19.519 15.9521C18.4155 15.874 18.6255 15.7373 15.4175 8.20801C14.9878 7.22656 14.0552 5.17578 13.6353 3.85254C13.4204 3.16895 13.9038 2.6123 14.5581 2.55371C15.4663 2.4707 16.3892 2.47559 17.3022 2.45605C18.3081 2.43652 19.314 2.43652 20.3198 2.43164C20.4712 2.43164 20.5151 2.36328 20.5298 2.22168C20.5884 1.74316 20.6616 1.26953 20.7251 0.795898C20.7642 0.537109 20.8032 0.273438 20.8423 0.00976563L4.28467 0C4.10889 0 4.02588 0.053711 4.06006 0.258789C4.16748 0.90332 4.021 0.297851 4.37256 2.4707C7.46826 2.4707 7.87842 2.51465 9.34326 2.49512C9.94385 2.48535 11.1499 2.66602 11.1841 3.57422C11.2036 4.13086 11.1304 4.12598 9.59229 7.8418C6.96533 14.1797 7.1167 13.7158 6.30615 15.7031C6.22315 15.9033 6.13037 15.957 5.93506 15.957C5.52002 15.9473 5.10498 15.9424 4.69483 15.9619C4.60205 15.9668 4.44092 16.0498 4.42627 16.1182C4.35303 16.5137 4.31885 16.9141 4.27002 17.334H9.85108V15.9863C9.51416 15.9863 8.21533 16.0059 8.12744 15.8447C8.38623 15.2441 8.63526 14.6533 8.89404 14.0527C9.68994 14.248 10.4517 14.4336 11.2183 14.624C11.3843 14.668 11.4429 14.7705 11.4429 14.9561C11.438 17.0508 11.4478 19.1504 11.4526 21.2451C11.4526 21.7432 11.1841 22.1777 10.7251 22.373C10.4077 22.5049 10.564 22.5391 4.79736 22.4902C4.53858 22.4902 4.45068 22.5879 4.42627 22.8223C4.35303 23.4521 4.28467 24.0869 4.18213 24.7168C4.14307 24.9609 4.24561 24.9951 4.44092 24.9951C13.3862 25.0244 2.9419 24.9951 20.9009 24.9951C20.7788 24.2627 20.686 23.5596 20.5786 22.8613ZM12.0386 12.8174C11.3892 12.6123 10.7397 12.417 10.0903 12.207C9.99262 12.1668 9.89796 12.1195 9.80713 12.0654C10.647 9.90234 11.4771 7.76367 12.312 5.61523C12.6782 5.73242 12.6978 5.57617 12.771 5.61523C13.2251 6.71387 13.6548 8.5498 14.0894 9.6582C14.4116 10.4736 14.7241 11.2939 15.0513 12.1436C14.99 12.1816 14.9264 12.2159 14.8608 12.2461C14.2212 12.4365 13.5718 12.6123 12.937 12.8174C12.6463 12.9199 12.3293 12.9199 12.0386 12.8174Z" fill="black"/>
</g>
<defs>
<clipPath id="clip0_0_174">
<rect width="25" height="25" fill="white"/>
</clipPath>
</defs>
</svg>
