<svg width="181" height="72" viewBox="0 0 181 72" fill="none" xmlns="http://www.w3.org/2000/svg">
<g clip-path="url(#clip0_0_340)">
<path d="M35.5344 18H20V55L35.5344 18Z" fill="#FA0C00"/>
<path d="M46.4641 18H61.9782V55L46.4641 18Z" fill="#FA0C00"/>
<path d="M40.9992 31.6368L50.8866 55H44.3996L41.4445 47.5617H34.2086L40.9992 31.6368Z" fill="#FA0C00"/>
<path d="M87.3213 41.5297L89.1531 46.7607C89.2138 46.8917 89.3049 46.9522 89.4668 46.9522H92.9886C93.1809 46.9522 93.2112 46.8615 93.1809 46.67L85.9045 26.5422C85.8742 26.3809 85.8438 26.3507 85.6819 26.3507H81.31C81.1886 26.3507 81.1177 26.4414 81.1177 26.5724C81.057 27.6307 80.9659 27.9533 80.8343 28.2657L74.3474 46.6397C74.317 46.8615 74.3878 46.9522 74.57 46.9522H77.7174C77.9096 46.9522 78.0007 46.8917 78.0716 46.7002L79.8021 41.5297H87.3213ZM80.804 38.1129C81.7553 35.2505 83.0102 31.5817 83.5162 29.4853H83.5465C84.174 31.6825 85.6515 36.0366 86.3194 38.1129H80.804Z" fill="#FA0C00"/>
<path d="M102.535 47.2646C104.428 47.2646 106.442 46.9219 108.486 46.0451C108.648 45.9846 108.678 45.914 108.678 45.7629C108.617 45.1984 108.546 44.382 108.546 43.7571V24.8086C108.546 24.6877 108.546 24.6272 108.395 24.6272H104.964C104.832 24.6272 104.772 24.6877 104.772 24.8489V31.2693C104.235 31.2088 103.861 31.1785 103.416 31.1785C97.8799 31.1785 94.4795 34.8171 94.4795 39.3627C94.4795 44.634 97.971 47.2646 102.535 47.2646V47.2646ZM104.772 43.7571C104.205 43.9386 103.578 44.0091 102.94 44.0091C100.43 44.0091 98.3758 42.5981 98.3758 39.1712C98.3758 36.1374 100.491 34.3434 103.294 34.3434C103.861 34.3434 104.357 34.4038 104.772 34.5651V43.7571Z" fill="#FA0C00"/>
<path d="M119.623 31.1786C114.897 31.1786 111.972 34.7869 111.972 39.2418C111.972 43.223 114.3 47.2647 119.552 47.2647C123.995 47.2647 127.112 44.0092 127.112 39.141C127.112 34.8473 124.47 31.1786 119.623 31.1786ZM119.43 34.3434C122.102 34.3434 123.236 36.6313 123.236 39.2418C123.236 42.4671 121.566 44.0696 119.623 44.0696C117.224 44.0696 115.807 42.0639 115.807 39.1712C115.807 36.1979 117.315 34.3434 119.43 34.3434V34.3434Z" fill="#FA0C00"/>
<path d="M130.658 24.6272C130.527 24.6272 130.436 24.6877 130.436 24.8489V46.297C130.436 46.3878 130.527 46.549 130.658 46.5793C132.166 47.0429 133.745 47.2646 135.374 47.2646C140.04 47.2646 144.574 44.382 144.574 38.5765C144.574 34.3736 141.679 31.1785 137.145 31.1785C136.103 31.1785 135.132 31.3398 134.281 31.622L134.241 24.8792C134.241 24.6574 134.18 24.6272 133.958 24.6272H130.658ZM140.698 38.9595C140.698 42.4368 138.309 44.0696 135.729 44.0696C135.192 44.0696 134.717 44.0393 134.281 43.9083V34.7566C134.777 34.5651 135.374 34.4038 136.478 34.4038C138.967 34.4038 140.698 35.9762 140.698 38.9595Z" fill="#FA0C00"/>
<path d="M157.377 40.0884C158.915 40.0884 160.18 40.0582 160.615 39.9574C160.777 39.9272 160.838 39.8667 160.868 39.7357C160.96 39.393 161 38.6774 161 37.8005C161 34.8171 159.199 31.1786 154.543 31.1786C149.787 31.1786 147.146 35.0388 147.146 39.393C147.146 43.2532 149.19 47.2647 154.918 47.2647C157.063 47.2647 158.45 46.922 159.644 46.3576C159.765 46.2971 159.826 46.1963 159.826 46.0149V43.4044C159.826 43.2532 159.735 43.223 159.644 43.2835C158.45 43.7874 157.154 44.0394 155.738 44.0394C152.529 44.0394 151.072 42.2756 150.981 40.0884H157.377ZM150.981 37.3873C151.234 35.8552 152.206 34.1922 154.381 34.1922C156.78 34.1922 157.407 36.1979 157.407 37.105C157.407 37.1353 157.407 37.2663 157.407 37.357C157.276 37.3873 156.871 37.3873 155.677 37.3873H150.981Z" fill="#FA0C00"/>
</g>
<defs>
<clipPath id="clip0_0_340">
<rect width="141" height="37" fill="white" transform="translate(20 18)"/>
</clipPath>
</defs>
</svg>
