<svg width="221" height="71" viewBox="0 0 221 71" fill="none" xmlns="http://www.w3.org/2000/svg">
<path d="M39.001 35.3661C39.001 32.5094 36.8497 30.4992 34.2047 30.4992C31.5597 30.4992 29.4084 32.5447 29.4084 35.3661C29.4084 38.1522 31.5597 40.2329 34.2047 40.2329C36.8497 40.2329 39.001 38.2227 39.001 35.3661ZM39.0363 43.8654V41.6436C37.7314 43.1601 35.7917 44.1123 33.4641 44.1123C28.6325 44.1123 25 40.374 25 35.3661C25 30.3582 28.8088 26.5846 33.5699 26.5846C35.827 26.5846 37.7314 27.5368 39.0363 29.018V26.8667H43.3388V43.8654H39.0363V43.8654Z" fill="black"/>
<path d="M64.3581 40.0921C62.8416 40.0921 62.4184 39.5631 62.4184 38.1172V30.6053H65.2045V26.9023H62.4184V22.776H57.9747V26.9023H52.2615V25.8795C52.2615 24.4689 52.8257 23.9046 54.3775 23.9046H55.365V20.6248H53.249C49.5812 20.6248 47.8531 21.7886 47.8531 25.3153V26.9376H45.3844V30.6053H47.8531V43.901H52.2967V30.6053H58.01V38.9283C58.01 42.3845 59.3854 43.901 62.9826 43.901H65.275V40.1274H64.3581V40.0921Z" fill="black"/>
<path d="M80.2635 33.8494C79.9461 31.6275 78.077 30.3227 75.8904 30.3227C73.7039 30.3227 71.9053 31.6275 71.4468 33.8494H80.2635ZM71.4115 36.4944C71.7289 38.9983 73.5981 40.4443 75.961 40.4443C77.8301 40.4443 79.2761 39.5979 80.1225 38.2225H84.6719C83.6139 41.8197 80.2636 44.1473 75.8904 44.1473C70.5651 44.1473 66.8621 40.5501 66.8621 35.4364C66.8621 30.3227 70.812 26.6196 75.9962 26.6196C81.251 26.6196 85.0246 30.3579 85.0246 35.4364C85.0246 35.8243 84.9893 36.177 84.9188 36.5297H71.4115V36.4944Z" fill="black"/>
<path d="M113.167 35.3658C113.167 32.615 111.016 30.499 108.371 30.499C105.726 30.499 103.575 32.5445 103.575 35.3658C103.575 38.1519 105.726 40.2327 108.371 40.2327C111.051 40.2327 113.167 38.1167 113.167 35.3658ZM99.2368 26.9018H103.575V29.1236C104.88 27.5718 106.819 26.6196 109.147 26.6196C113.908 26.6196 117.611 30.3932 117.611 35.3658C117.611 40.3738 113.802 44.1473 109.041 44.1473C106.819 44.1473 104.985 43.3009 103.716 41.855V50.848H99.2368V26.9018Z" fill="black"/>
<path d="M133.199 35.3661C133.199 32.5094 131.048 30.4992 128.403 30.4992C125.758 30.4992 123.606 32.5447 123.606 35.3661C123.606 38.1522 125.758 40.2329 128.403 40.2329C131.048 40.2329 133.199 38.2227 133.199 35.3661ZM133.234 43.8654V41.6436C131.929 43.1601 129.99 44.1123 127.662 44.1123C122.831 44.1123 119.198 40.374 119.198 35.3661C119.198 30.3582 123.007 26.5846 127.768 26.5846C130.025 26.5846 131.929 27.5368 133.234 29.018V26.8667H137.572V43.8654H133.234V43.8654Z" fill="black"/>
<path d="M91.443 28.5595C91.443 28.5595 92.5363 26.5846 95.2519 26.5846C96.4157 26.5846 97.1563 26.9725 97.1563 26.9725V31.3104C97.1563 31.3104 95.534 30.3229 94.0528 30.5345C92.5716 30.7461 91.6194 32.051 91.6194 33.8143V43.8654H87.1405V26.8667H91.4783V28.5595H91.443Z" fill="black"/>
<path d="M157.745 26.9017L146.812 50.8128H142.192L146.495 41.5728L139.265 26.9017H144.485L148.717 36.706L153.054 26.9017H157.745Z" fill="black"/>
<path d="M192.589 26.5139L181.762 20.4833C178.588 18.7199 174.602 20.9417 174.602 24.4684V25.1032C174.602 25.6675 174.92 26.1965 175.413 26.4434L177.459 27.5719C178.059 27.9246 178.799 27.5014 178.799 26.8313V25.2796C178.799 24.5037 179.646 24.0452 180.351 24.3979L189.732 29.6174C190.437 30.0054 190.437 30.9576 189.732 31.3455L180.386 36.6003C179.681 36.9882 178.834 36.4945 178.834 35.7186V34.9075C178.834 31.3455 174.849 29.1589 171.675 30.9223L160.848 36.953C157.674 38.7163 157.674 43.1599 160.848 44.9233L171.675 50.9539C174.849 52.7173 178.834 50.4955 178.834 46.9688V46.334C178.834 45.7697 178.517 45.276 178.023 44.9938L175.978 43.8653C175.378 43.5126 174.638 43.9358 174.638 44.6059V46.1576C174.638 46.9335 173.791 47.392 173.086 47.0393L163.705 41.8198C163 41.4319 163 40.4796 163.705 40.0917L173.086 34.8722C173.791 34.4843 174.638 34.978 174.638 35.7539V36.565C174.638 40.127 178.623 42.3135 181.797 40.5502L192.624 34.5195C195.798 32.7209 195.798 28.2773 192.589 26.5139Z" fill="black"/>
</svg>
