<svg width="213" height="72" viewBox="0 0 213 72" fill="none" xmlns="http://www.w3.org/2000/svg">
<path d="M173.934 34.6883C176.282 34.6883 177.187 36.121 177.314 37.3685C177.315 37.3873 177.313 37.4063 177.307 37.4243C177.301 37.4422 177.291 37.4586 177.279 37.4726C177.266 37.4866 177.25 37.4977 177.233 37.5053C177.216 37.5129 177.197 37.5167 177.178 37.5167H170.73C170.711 37.5167 170.692 37.5126 170.674 37.5047C170.657 37.4968 170.641 37.4852 170.628 37.4708C170.616 37.4564 170.606 37.4394 170.601 37.4211C170.595 37.4027 170.593 37.3833 170.596 37.3643C170.77 36.1453 171.853 34.6883 173.934 34.6883ZM177.469 42.62C177.426 42.6198 177.383 42.6297 177.345 42.6491C177.307 42.6684 177.274 42.6965 177.249 42.7311C176.668 43.548 175.721 44.0516 174.308 44.0516C172.361 44.0516 170.671 42.7755 170.488 40.9672C170.487 40.9485 170.489 40.9296 170.495 40.9117C170.501 40.8939 170.51 40.8774 170.523 40.8635C170.536 40.8496 170.551 40.8384 170.568 40.8308C170.586 40.8231 170.604 40.8191 170.623 40.8191H182.208C182.241 40.7175 182.309 39.9429 182.309 39.235C182.309 33.8471 179.088 30.6473 173.867 30.6473C169.493 30.6473 165.458 34.082 165.458 39.471C165.458 45.096 169.595 48.3963 174.24 48.3963C178.438 48.3963 181.098 46.0536 181.961 43.2221C181.966 43.2051 181.995 43.0993 182.027 42.9448C182.035 42.9055 182.034 42.8649 182.025 42.8259C182.015 42.7869 181.997 42.7506 181.971 42.7194C181.946 42.6883 181.914 42.6632 181.878 42.646C181.841 42.6288 181.802 42.6199 181.761 42.62H177.469V42.62ZM187.712 39.3853L182.22 31.5763C182.191 31.5358 182.175 31.4883 182.171 31.439C182.168 31.3897 182.179 31.3405 182.202 31.2967C182.225 31.2529 182.259 31.2163 182.302 31.1907C182.344 31.1652 182.393 31.1518 182.442 31.152H187.843C187.935 31.152 188.02 31.1975 188.071 31.2737L190.893 35.5591C190.946 35.6406 191.067 35.6395 191.12 35.557L193.878 31.2769C193.902 31.2386 193.936 31.2071 193.976 31.1853C194.016 31.1635 194.06 31.152 194.106 31.152H199.196C199.417 31.152 199.545 31.3986 199.419 31.5774L194 39.1811C193.967 39.2263 193.95 39.2804 193.95 39.3359C193.95 39.3914 193.967 39.4457 193.999 39.4911C195.773 42.0094 197.8 44.9193 199.62 47.4662C199.747 47.645 199.62 47.8905 199.399 47.8905H194.036C193.991 47.8907 193.947 47.8798 193.907 47.8587C193.867 47.8377 193.834 47.8071 193.809 47.7699L190.882 43.3448C190.87 43.3262 190.853 43.311 190.834 43.3005C190.814 43.29 190.792 43.2845 190.77 43.2845C190.747 43.2845 190.725 43.29 190.705 43.3005C190.686 43.311 190.669 43.3262 190.657 43.3448C189.78 44.6442 188.634 46.4536 187.765 47.7699C187.741 47.8072 187.707 47.8378 187.667 47.8588C187.627 47.8799 187.583 47.8908 187.538 47.8905H182.539C182.49 47.8908 182.441 47.8775 182.399 47.8522C182.356 47.8269 182.322 47.7905 182.299 47.7469C182.276 47.7034 182.265 47.6543 182.268 47.6052C182.271 47.5561 182.288 47.5087 182.316 47.4683L187.713 39.6922C187.745 39.6471 187.762 39.5936 187.762 39.5387C187.762 39.4839 187.745 39.4303 187.713 39.3853H187.712ZM158.61 47.6217V23.7769C158.61 23.6277 158.732 23.5071 158.881 23.5071H163.492C163.642 23.5071 163.764 23.6277 163.764 23.7769V47.6217C163.764 47.7699 163.642 47.8905 163.492 47.8905H158.881C158.846 47.8906 158.811 47.8838 158.778 47.8704C158.745 47.8569 158.715 47.8372 158.69 47.8122C158.664 47.7873 158.644 47.7576 158.631 47.7249C158.617 47.6922 158.61 47.6572 158.61 47.6217V47.6217ZM151.015 47.6217V23.7769C151.015 23.6277 151.137 23.5071 151.287 23.5071H155.898C156.047 23.5071 156.168 23.6277 156.168 23.7769V47.6217C156.168 47.7699 156.047 47.8905 155.898 47.8905H151.287C151.251 47.8906 151.216 47.8838 151.183 47.8704C151.15 47.8569 151.12 47.8372 151.095 47.8122C151.07 47.7873 151.05 47.7576 151.036 47.7249C151.023 47.6922 151.015 47.6572 151.015 47.6217V47.6217ZM139.612 43.95C141.681 43.95 143.443 42.3343 143.443 39.5049C143.443 36.6088 141.714 35.0925 139.612 35.0925C137.408 35.0925 135.747 36.6088 135.747 39.5049C135.747 42.2666 137.476 43.9511 139.612 43.9511V43.95ZM143.477 45.7351C142.731 47.3519 141.037 48.3624 138.934 48.3624C133.983 48.3624 130.56 44.6241 130.56 39.471C130.56 34.4872 133.781 30.6462 138.764 30.6462C141.782 30.6462 143.104 32.2969 143.443 33.0715V31.4208C143.443 31.2727 143.564 31.152 143.715 31.152H148.156C148.304 31.152 148.426 31.2727 148.426 31.4219V47.6217C148.426 47.7699 148.306 47.8905 148.156 47.8905H143.718C143.682 47.8905 143.647 47.8834 143.614 47.8697C143.581 47.8559 143.551 47.8357 143.525 47.8104C143.5 47.785 143.48 47.7548 143.467 47.7217C143.454 47.6886 143.447 47.6532 143.447 47.6175C143.456 47.0091 143.477 45.6028 143.477 45.7351V45.7351ZM119.563 31.3372L122.651 40.6677C122.694 40.7947 122.874 40.7905 122.91 40.6625L125.549 31.3488C125.565 31.2921 125.599 31.2422 125.646 31.2066C125.693 31.1711 125.751 31.1519 125.81 31.152H130.287C130.47 31.152 130.601 31.3277 130.547 31.5012L125.493 47.7011C125.476 47.7563 125.442 47.8046 125.395 47.8389C125.349 47.8732 125.292 47.8916 125.235 47.8916H120.51C120.453 47.8915 120.398 47.8736 120.352 47.8406C120.306 47.8076 120.271 47.761 120.253 47.7075L116.784 37.4627C116.741 37.3399 116.566 37.341 116.526 37.4627L113.12 47.7053C113.103 47.7592 113.068 47.8061 113.022 47.8393C112.976 47.8726 112.92 47.8905 112.864 47.8905H108.037C107.98 47.8905 107.923 47.8723 107.877 47.8385C107.83 47.8046 107.796 47.7569 107.778 47.7022L102.659 31.5023C102.646 31.4618 102.644 31.419 102.651 31.3772C102.658 31.3354 102.674 31.2959 102.7 31.2617C102.725 31.2276 102.758 31.1999 102.796 31.1809C102.834 31.1618 102.876 31.1519 102.918 31.152H107.701C107.822 31.152 107.929 31.2324 107.962 31.3488L110.601 40.6328C110.637 40.7598 110.817 40.764 110.859 40.6381L113.981 31.3372C113.999 31.2833 114.033 31.2363 114.08 31.2031C114.126 31.1699 114.182 31.152 114.239 31.152H119.305C119.421 31.152 119.527 31.2261 119.563 31.3372V31.3372ZM101.261 35.8734C101.261 35.9127 101.252 35.9516 101.235 35.9873C101.219 36.023 101.194 36.0546 101.164 36.0799C101.134 36.1052 101.099 36.1236 101.06 36.1338C101.022 36.144 100.982 36.1458 100.944 36.139C100.511 36.066 100.072 36.0313 99.6332 36.0353C97.5643 36.0353 95.7002 37.2479 95.7002 40.582V47.6217C95.7002 47.7699 95.5792 47.8905 95.4296 47.8905H90.8186C90.7831 47.8906 90.7479 47.8838 90.715 47.8704C90.6821 47.8569 90.6522 47.8372 90.627 47.8122C90.6018 47.7873 90.5817 47.7576 90.568 47.7249C90.5543 47.6922 90.5472 47.6572 90.547 47.6217V31.4219C90.547 31.2737 90.668 31.152 90.8186 31.152H95.2599C95.4095 31.152 95.5304 31.2727 95.5304 31.4219V33.409C96.4121 31.5224 98.5489 30.9838 99.9048 30.9838C100.316 30.9838 100.728 31.0282 101.05 31.0981C101.174 31.1256 101.261 31.2356 101.261 31.3615V35.8734ZM82.8507 47.6217V31.4219C82.8507 31.2737 82.9727 31.152 83.1223 31.152H87.7333C87.8829 31.152 88.0049 31.2727 88.0049 31.4219V47.6217C88.0049 47.7699 87.8829 47.8905 87.7333 47.8905H83.1223C83.0868 47.8906 83.0516 47.8838 83.0187 47.8704C82.9858 47.8569 82.9559 47.8372 82.9307 47.8122C82.9055 47.7873 82.8854 47.7576 82.8717 47.7249C82.858 47.6922 82.8508 47.6572 82.8507 47.6217ZM85.3939 23.0352C87.0893 23.0352 88.4452 24.3821 88.4452 26.0328C88.4452 27.6835 87.0893 29.0305 85.3939 29.0305C83.7663 29.0305 82.4104 27.6835 82.4104 26.0328C82.4104 24.3821 83.7663 23.0352 85.3939 23.0352V23.0352ZM66.43 38.1907H71.8791C71.9725 38.1907 72.0383 38.0997 72.0065 38.0119L69.3158 30.3024C69.3067 30.2757 69.2895 30.2525 69.2665 30.236C69.2436 30.2196 69.2161 30.2107 69.1878 30.2106C69.1596 30.2104 69.132 30.2191 69.1089 30.2354C69.0858 30.2517 69.0684 30.2747 69.0591 30.3013L66.3037 38.0119C66.2719 38.0986 66.3377 38.1917 66.431 38.1917L66.43 38.1907ZM73.5735 43.0411H64.6666C64.6107 43.0412 64.5563 43.0586 64.5107 43.0908C64.4651 43.123 64.4306 43.1685 64.412 43.221L62.8099 47.7117C62.7912 47.7644 62.7566 47.81 62.7108 47.8422C62.665 47.8745 62.6103 47.8917 62.5542 47.8916H57.5103C57.4664 47.8918 57.4232 47.8814 57.3842 47.8612C57.3452 47.8411 57.3118 47.8118 57.2867 47.7758C57.2617 47.7399 57.2458 47.6984 57.2403 47.655C57.2349 47.6116 57.2402 47.5675 57.2557 47.5265L66.1042 24.1864C66.1237 24.135 66.1584 24.0908 66.2037 24.0596C66.249 24.0284 66.3028 24.0117 66.3578 24.0118H72.1868C72.2993 24.0118 72.4011 24.0816 72.4404 24.1875L81.1892 47.5276C81.2043 47.5684 81.2092 47.6123 81.2036 47.6554C81.198 47.6986 81.182 47.7397 81.1569 47.7754C81.1319 47.811 81.0986 47.8401 81.0599 47.8602C81.0212 47.8802 80.9782 47.8906 80.9346 47.8905H75.6859C75.6299 47.8905 75.5753 47.8732 75.5295 47.841C75.4837 47.8088 75.449 47.7632 75.4302 47.7106L73.8281 43.221C73.8094 43.1685 73.7749 43.1231 73.7293 43.091C73.6838 43.0588 73.6294 43.0414 73.5735 43.0411V43.0411Z" fill="#2A2A2A"/>
<path fill-rule="evenodd" clip-rule="evenodd" d="M50.725 32.9694C51.3849 33.6101 51.8427 34.4292 52.0419 35.3259C52.2412 36.2227 52.1732 37.158 51.8464 38.0167L49.3563 44.7633C48.7027 46.5346 47.2131 47.9049 45.3723 48.2625C44.4516 48.4463 43.498 48.377 42.6137 48.062C41.7294 47.747 40.9475 47.1982 40.3518 46.4743L25.4196 28.6322C25.3825 28.5883 25.3345 28.5549 25.2803 28.5353C25.2262 28.5157 25.1678 28.5106 25.1111 28.5206C25.0544 28.5306 25.0013 28.5552 24.9571 28.592C24.913 28.6289 24.8793 28.6767 24.8594 28.7306L20.0012 41.8355C19.9004 42.1063 20.1678 42.3688 20.433 42.2608L26.3947 39.8324C26.7308 39.6965 27.0914 39.6314 27.4539 39.641C27.8165 39.6507 28.1731 39.735 28.5014 39.8886C28.8298 40.0422 29.1227 40.2618 29.362 40.5336C29.6012 40.8055 29.7815 41.1237 29.8916 41.4683C30.3319 42.8153 29.5914 44.2702 28.2874 44.8014L20.4999 47.9726C19.058 48.5598 17.4018 48.4561 16.1032 47.5917C15.2182 47.0018 14.5584 46.1317 14.2304 45.1218C13.9023 44.1119 13.9252 43.0212 14.2953 42.0259L20.0352 26.5477C20.7152 24.7129 22.2643 23.4177 24.1793 23.0834C25.1119 22.9167 26.0722 23.0009 26.9614 23.3273C27.8505 23.6537 28.6364 24.2105 29.2381 24.9404L37.8086 35.183L45.6917 31.9716C47.4434 31.2584 49.3722 31.6404 50.725 32.9694ZM46.1787 38.114C46.2784 37.8432 46.0111 37.5807 45.7458 37.6897L41.3905 39.4631L44.0026 42.5857C44.0397 42.6301 44.0878 42.664 44.1422 42.6839C44.1966 42.7038 44.2553 42.709 44.3124 42.6991C44.3695 42.6891 44.4229 42.6642 44.4672 42.627C44.5116 42.5898 44.5453 42.5416 44.5649 42.4873L46.1776 38.114H46.1787Z" fill="url(#paint0_linear_0_344)"/>
<defs>
<linearGradient id="paint0_linear_0_344" x1="14" y1="23" x2="37.3861" y2="58.1799" gradientUnits="userSpaceOnUse">
<stop stop-color="#FF4244"/>
<stop offset="1" stop-color="#FF8E3C"/>
</linearGradient>
</defs>
</svg>
