<svg width="125" height="72" viewBox="0 0 125 72" fill="none" xmlns="http://www.w3.org/2000/svg">
<path fill-rule="evenodd" clip-rule="evenodd" d="M74.1414 48.8686C68.4142 53.0705 60.113 55.3123 52.9658 55.3123C42.9442 55.3123 33.9223 51.6229 27.0968 45.4866C26.5605 45.0041 27.041 44.3465 27.6845 44.7222C35.0505 48.9882 44.1583 51.5545 53.5664 51.5545C59.9114 51.5545 66.8913 50.2479 73.3092 47.5363C74.2787 47.1264 75.0895 48.1683 74.1414 48.8686Z" fill="#FF9900"/>
<path fill-rule="evenodd" clip-rule="evenodd" d="M76.5225 46.1571C75.7932 45.2262 71.6833 45.7172 69.8386 45.935C69.2766 46.0033 69.1908 45.5165 69.697 45.1664C72.9703 42.8733 78.3415 43.5352 78.9678 44.3038C79.5941 45.0767 78.8048 50.4358 75.7288 52.9936C75.2569 53.3865 74.8065 53.1772 75.0167 52.6563C75.7074 50.9397 77.2561 47.0922 76.5225 46.1571Z" fill="#FF9900"/>
<path fill-rule="evenodd" clip-rule="evenodd" d="M69.9676 28.9783V26.7492C69.9676 26.4119 70.225 26.1856 70.5339 26.1856H80.5597C80.8814 26.1856 81.1388 26.4161 81.1388 26.7492V28.658C81.1346 28.9783 80.8643 29.3967 80.3838 30.0586L75.1885 37.4418C77.1191 37.3948 79.1568 37.6809 80.9072 38.663C81.3019 38.8851 81.4091 39.2096 81.4391 39.5299V41.9084C81.4391 42.2329 81.0788 42.613 80.7013 42.4165C77.6167 40.8067 73.5197 40.6316 70.1091 42.4336C69.7616 42.6215 69.397 42.2457 69.397 41.9212V39.6623C69.397 39.2993 69.4013 38.6801 69.7659 38.1293L75.7849 29.5377H70.5467C70.225 29.5377 69.9676 29.3113 69.9676 28.9783Z" fill="#232F3F"/>
<path fill-rule="evenodd" clip-rule="evenodd" d="M33.3949 42.8863H30.3447C30.053 42.8649 29.8213 42.6471 29.7999 42.3696V26.7877C29.7999 26.476 30.0615 26.2283 30.3876 26.2283H33.2319C33.5279 26.2411 33.7639 26.4674 33.7853 26.7493V28.7861H33.8411C34.5833 26.8176 35.9775 25.8995 37.8566 25.8995C39.7656 25.8995 40.9583 26.8176 41.8163 28.7861C42.5542 26.8176 44.2316 25.8995 46.0291 25.8995C47.3075 25.8995 48.7061 26.4247 49.5598 27.6033C50.5251 28.9142 50.3277 30.8187 50.3277 32.4884L50.3234 42.3226C50.3234 42.6343 50.0617 42.8863 49.7357 42.8863H46.6898C46.3852 42.8649 46.1406 42.6215 46.1406 42.3226V34.0641C46.1406 33.4065 46.2007 31.7667 46.0548 31.1433C45.8275 30.0971 45.1453 29.8024 44.2616 29.8024C43.5237 29.8024 42.7515 30.2935 42.4383 31.0792C42.1252 31.8649 42.1552 33.1801 42.1552 34.0641V42.3226C42.1552 42.6343 41.8935 42.8863 41.5674 42.8863H38.5215C38.2126 42.8649 37.9724 42.6215 37.9724 42.3226L37.9681 34.0641C37.9681 32.3261 38.2555 29.7683 36.0891 29.7683C33.8968 29.7683 33.9827 32.2621 33.9827 34.0641V42.3226C33.9827 42.6343 33.721 42.8863 33.3949 42.8863Z" fill="#232F3F"/>
<path fill-rule="evenodd" clip-rule="evenodd" d="M89.7703 25.8995C94.2963 25.8995 96.7459 29.7683 96.7459 34.6875C96.7459 39.4402 94.0389 43.2108 89.7703 43.2108C85.3258 43.2108 82.9062 39.342 82.9062 34.521C82.9062 29.6701 85.3558 25.8995 89.7703 25.8995ZM89.796 29.0808C87.548 29.0808 87.4065 32.1297 87.4065 34.0299C87.4065 35.9344 87.3764 39.9996 89.7703 39.9996C92.1341 39.9996 92.2457 36.7201 92.2457 34.7217C92.2457 33.4065 92.1899 31.835 91.7909 30.5881C91.4477 29.5035 90.7656 29.0808 89.796 29.0808Z" fill="#232F3F"/>
<path fill-rule="evenodd" clip-rule="evenodd" d="M102.615 42.8863H99.5775C99.2729 42.8649 99.0283 42.6215 99.0283 42.3226L99.024 26.7364C99.0498 26.4503 99.3029 26.2283 99.6118 26.2283H102.439C102.705 26.2411 102.924 26.4205 102.984 26.6639V29.0466H103.04C103.893 26.9158 105.09 25.8995 107.197 25.8995C108.565 25.8995 109.899 26.3906 110.757 27.7357C111.555 28.9826 111.555 31.0792 111.555 32.5866V42.3952C111.521 42.6685 111.268 42.8863 110.968 42.8863H107.909C107.63 42.8649 107.398 42.66 107.368 42.3952V33.9317C107.368 32.2279 107.566 29.7341 105.459 29.7341C104.717 29.7341 104.035 30.2295 103.696 30.981C103.267 31.9333 103.211 32.8812 103.211 33.9317V42.3226C103.207 42.6343 102.941 42.8863 102.615 42.8863Z" fill="#232F3F"/>
<path fill-rule="evenodd" clip-rule="evenodd" d="M61.9752 35.4433C61.9752 36.6262 62.0053 37.6126 61.4047 38.663C60.9199 39.5171 60.1477 40.0423 59.294 40.0423C58.1228 40.0423 57.4364 39.1541 57.4364 37.8432C57.4364 35.2554 59.7659 34.7857 61.9752 34.7857V35.4433ZM65.0512 42.8435C64.8496 43.0229 64.5578 43.0357 64.3305 42.9161C63.318 42.0792 63.1335 41.6906 62.5801 40.8921C60.907 42.5916 59.7187 43.0998 57.5522 43.0998C54.9825 43.0998 52.9876 41.5241 52.9876 38.3684C52.9876 35.9045 54.3261 34.2263 56.2395 33.4064C57.8954 32.6805 60.2077 32.5524 61.9752 32.3517V31.9588C61.9752 31.2372 62.031 30.3831 61.602 29.7597C61.2331 29.2003 60.5209 28.9697 59.8903 28.9697C58.7277 28.9697 57.6938 29.5633 57.4407 30.7931C57.3892 31.0664 57.1876 31.3354 56.9087 31.3482L53.9529 31.0322C53.704 30.9767 53.4252 30.776 53.4981 30.396C54.1759 26.8261 57.4192 25.75 60.3193 25.75C61.8036 25.75 63.7427 26.1429 64.9139 27.2616C66.3983 28.6409 66.2567 30.4814 66.2567 32.4841V37.2154C66.2567 38.6374 66.8487 39.2609 67.4064 40.0295C67.5995 40.3028 67.6424 40.6316 67.3935 40.8366C66.7715 41.3533 65.6647 42.314 65.0555 42.8521L65.0512 42.8435Z" fill="#232F3F"/>
<path fill-rule="evenodd" clip-rule="evenodd" d="M21.9876 35.4433C21.9876 36.6262 22.0177 37.6126 21.4171 38.663C20.9323 39.5171 20.1644 40.0423 19.3064 40.0423C18.1352 40.0423 17.4531 39.1541 17.4531 37.8432C17.4531 35.2554 19.7826 34.7857 21.9876 34.7857V35.4433ZM25.0636 42.8435C24.862 43.0229 24.5702 43.0357 24.3429 42.9161C23.3304 42.0792 23.1502 41.6906 22.5925 40.8921C20.9194 42.5916 19.7354 43.0997 17.5646 43.0997C14.9992 43.0997 13 41.524 13 38.3684C13 35.9045 14.3428 34.2263 16.2519 33.4064C17.9078 32.6805 20.2201 32.5524 21.9876 32.3517V31.9588C21.9876 31.2372 22.0434 30.3831 21.6187 29.7597C21.2455 29.2003 20.5333 28.9697 19.907 28.9697C18.7444 28.9697 17.7062 29.5633 17.4531 30.7931C17.4016 31.0664 17.2 31.3354 16.9254 31.3482L13.9653 31.0322C13.7164 30.9767 13.4419 30.776 13.5105 30.396C14.1926 26.8261 17.4316 25.75 20.3317 25.75C21.816 25.75 23.7551 26.1429 24.9263 27.2616C26.4107 28.6409 26.2691 30.4814 26.2691 32.4841V37.2154C26.2691 38.6374 26.8611 39.2609 27.4188 40.0295C27.6162 40.3028 27.6591 40.6316 27.4102 40.8365C26.7882 41.3532 25.6814 42.314 25.0722 42.8521L25.0636 42.8435Z" fill="#232F3F"/>
</svg>
