<svg width="14" height="14" viewBox="0 0 14 14" fill="none" xmlns="http://www.w3.org/2000/svg">
<path d="M12.1707 6.08398L12.7777 6.69102C13.0348 6.94805 13.0348 7.36367 12.7777 7.61797L7.46485 12.9336C7.20782 13.1906 6.79219 13.1906 6.53789 12.9336L1.22227 7.61797C0.965237 7.36094 0.965237 6.94531 1.22227 6.69102L1.8293 6.08398C2.08907 5.82422 2.51289 5.82969 2.76719 6.09492L5.90625 9.38984V1.53125C5.90625 1.16758 6.19883 0.875 6.5625 0.875H7.4375C7.80118 0.875 8.09375 1.16758 8.09375 1.53125V9.38984L11.2328 6.09492C11.4871 5.82695 11.9109 5.82148 12.1707 6.08398Z" fill="white"/>
</svg>
