<svg width="14" height="14" viewBox="0 0 14 14" fill="none" xmlns="http://www.w3.org/2000/svg">
<path d="M12.1707 6.08398L12.7777 6.69102C13.0348 6.94805 13.0348 7.36367 12.7777 7.61797L7.46483 12.9336C7.2078 13.1906 6.79218 13.1906 6.53788 12.9336L1.22225 7.61797C0.965222 7.36094 0.965222 6.94531 1.22225 6.69102L1.82928 6.08398C2.08905 5.82422 2.51288 5.82969 2.76718 6.09492L5.90624 9.38984V1.53125C5.90624 1.16758 6.19882 0.875 6.56249 0.875H7.43749C7.80116 0.875 8.09374 1.16758 8.09374 1.53125V9.38984L11.2328 6.09492C11.4871 5.82695 11.9109 5.82148 12.1707 6.08398Z" fill="white"/>
</svg>
