<svg width="25" height="25" viewBox="0 0 25 25" fill="none" xmlns="http://www.w3.org/2000/svg">
<g clip-path="url(#clip0_0_146)">
<path d="M10.8945 22.4805L8.51172 21.7891C8.26172 21.7188 8.12109 21.457 8.19141 21.207L13.5234 2.83986C13.5938 2.58986 13.8555 2.44923 14.1055 2.51954L16.4883 3.21095C16.7383 3.28126 16.8789 3.54298 16.8086 3.79298L11.4766 22.1602C11.4023 22.4102 11.1445 22.5547 10.8945 22.4805ZM6.44141 18.0977L8.14062 16.2852C8.32031 16.0938 8.30859 15.7891 8.10938 15.6133L4.57031 12.5L8.10938 9.38673C8.30859 9.21095 8.32422 8.90626 8.14062 8.71486L6.44141 6.90236C6.26562 6.71486 5.96875 6.70314 5.77734 6.88282L0.148437 12.1563C-0.0507813 12.3399 -0.0507813 12.6563 0.148437 12.8399L5.77734 18.1172C5.96875 18.2969 6.26562 18.2891 6.44141 18.0977ZM19.2227 18.1211L24.8516 12.8438C25.0508 12.6602 25.0508 12.3438 24.8516 12.1602L19.2227 6.87892C19.0352 6.70314 18.7383 6.71095 18.5586 6.89845L16.8594 8.71095C16.6797 8.90236 16.6914 9.20704 16.8906 9.38283L20.4297 12.5L16.8906 15.6133C16.6914 15.7891 16.6758 16.0938 16.8594 16.2852L18.5586 18.0977C18.7344 18.2891 19.0312 18.2969 19.2227 18.1211Z" fill="black"/>
</g>
<defs>
<clipPath id="clip0_0_146">
<rect width="25" height="25" fill="white"/>
</clipPath>
</defs>
</svg>
