<svg width="22" height="44" viewBox="0 0 22 44" fill="none" xmlns="http://www.w3.org/2000/svg">
<mask id="path-1-inside-1_0_110" fill="white">
<path d="M21.5 0C15.7978 0 10.3292 2.31785 6.2972 6.44365C2.26517 10.5695 4.30501e-07 16.1652 0 22C-4.30501e-07 27.8348 2.26517 33.4305 6.2972 37.5563C10.3292 41.6821 15.7978 44 21.5 44L21.5 22L21.5 0Z"/>
</mask>
<path d="M21.5 0C15.7978 0 10.3292 2.31785 6.2972 6.44365C2.26517 10.5695 4.30501e-07 16.1652 0 22C-4.30501e-07 27.8348 2.26517 33.4305 6.2972 37.5563C10.3292 41.6821 15.7978 44 21.5 44L21.5 22L21.5 0Z" fill="#FEA114" stroke="#FEA114" stroke-width="2" mask="url(#path-1-inside-1_0_110)"/>
</svg>
