<svg width="25" height="25" viewBox="0 0 25 25" fill="none" xmlns="http://www.w3.org/2000/svg">
<g clip-path="url(#clip0_0_160)">
<path d="M24.4932 4.49756L13.0488 0.0996079C12.6952 -0.0332026 12.3053 -0.0332026 11.9517 0.0996079L0.506836 4.49756C0.35796 4.55342 0.229671 4.65337 0.139106 4.78407C0.0485414 4.91477 1.19274e-05 5.06999 0 5.229L0 7.03125C0 7.46289 0.349609 7.8125 0.78125 7.8125H24.2188C24.6504 7.8125 25 7.46289 25 7.03125V5.229C25 4.90332 24.7979 4.61181 24.4932 4.49756ZM3.125 9.375V17.1875H2.34375C1.91211 17.1875 1.5625 17.5371 1.5625 17.9687V20.3125H23.4375V17.9687C23.4375 17.5371 23.0879 17.1875 22.6562 17.1875H21.875V9.375H18.75V17.1875H14.0625V9.375H10.9375V17.1875H6.25V9.375H3.125ZM24.2188 21.875H0.78125C0.349609 21.875 0 22.2246 0 22.6562V24.2187C0 24.6504 0.349609 25 0.78125 25H24.2188C24.6504 25 25 24.6504 25 24.2187V22.6562C25 22.2246 24.6504 21.875 24.2188 21.875Z" fill="black"/>
</g>
<defs>
<clipPath id="clip0_0_160">
<rect width="25" height="25" fill="white"/>
</clipPath>
</defs>
</svg>
