<svg width="13" height="13" viewBox="0 0 13 13" fill="none" xmlns="http://www.w3.org/2000/svg">
<g clip-path="url(#clip0_2_517)">
<path d="M12.1239 6.7621C12.1239 6.28358 12.0842 5.93439 11.9982 5.57227H6.40588V7.73206H9.68842C9.62227 8.2688 9.26489 9.07711 8.47071 9.62027L8.45958 9.69258L10.2278 11.031L10.3503 11.0429C11.4753 10.0277 12.1239 8.53391 12.1239 6.7621" fill="#4285F4"/>
<path d="M6.40591 12.4526C8.01408 12.4526 9.36415 11.9353 10.3503 11.0429L8.47074 9.62027C7.96777 9.963 7.29271 10.2023 6.40591 10.2023C4.83082 10.2023 3.49398 9.18705 3.01743 7.78381L2.94758 7.78961L1.109 9.17991L1.08496 9.24522C2.06443 11.1464 4.07633 12.4526 6.40591 12.4526Z" fill="#34A853"/>
<path d="M3.01737 7.7838C2.89163 7.42168 2.81886 7.03365 2.81886 6.63275C2.81886 6.2318 2.89163 5.84382 3.01076 5.4817L3.00743 5.40458L1.14581 3.99194L1.08491 4.02025C0.68122 4.80918 0.449585 5.69511 0.449585 6.63275C0.449585 7.57039 0.68122 8.45628 1.08491 9.2452L3.01737 7.7838" fill="#FBBC05"/>
<path d="M6.40591 3.06332C7.52435 3.06332 8.27879 3.53538 8.70899 3.92986L10.39 2.32615C9.35758 1.38851 8.01408 0.812988 6.40591 0.812988C4.07633 0.812988 2.06443 2.11922 1.08496 4.02036L3.01081 5.48181C3.49398 4.07858 4.83082 3.06332 6.40591 3.06332" fill="#EB4335"/>
</g>
<defs>
<clipPath id="clip0_2_517">
<rect width="11.6799" height="11.6799" fill="white" transform="translate(0.449707 0.812988)"/>
</clipPath>
</defs>
</svg>
