<svg width="313" height="313" viewBox="0 0 313 313" fill="none" xmlns="http://www.w3.org/2000/svg">
<g clip-path="url(#clip0_2_35)">
<path d="M313 0H0V313H313V0Z" fill="white"/>
<g clip-path="url(#clip1_2_35)">
<g clip-path="url(#clip2_2_35)">
<g clip-path="url(#clip3_2_35)">
<g clip-path="url(#clip4_2_35)">
<g clip-path="url(#clip5_2_35)">
<g clip-path="url(#clip6_2_35)">
<g clip-path="url(#clip7_2_35)">
<path d="M96.2534 149.17C97.8783 149.17 99.2883 149.714 100.484 150.801L98.6303 152.997C98.2678 152.701 97.9226 152.476 97.595 152.32C97.2646 152.167 96.9114 152.09 96.5354 152.09C95.8237 152.09 95.2866 152.449 94.924 153.166C94.5614 153.886 94.3801 155.011 94.3801 156.542C94.3801 158.073 94.5614 159.188 94.924 159.886C95.2866 160.584 95.8304 160.933 96.5556 160.933C96.9584 160.933 97.3277 160.849 97.6635 160.68C97.9992 160.513 98.402 160.242 98.872 159.866L100.625 162.061C100.074 162.639 99.4293 163.105 98.6908 163.459C97.9522 163.816 97.1397 163.995 96.2534 163.995C94.3734 163.995 92.8868 163.36 91.7937 162.09C90.6979 160.822 90.15 158.973 90.15 156.542C90.15 154.984 90.4052 153.651 90.9155 152.542C91.4258 151.435 92.1415 150.596 93.0627 150.024C93.9813 149.454 95.0448 149.17 96.2534 149.17ZM106.929 149.17C108.877 149.17 110.36 149.797 111.381 151.051C112.402 152.308 112.912 154.145 112.912 156.562C112.912 158.939 112.398 160.772 111.369 162.061C110.343 163.351 108.863 163.995 106.929 163.995C104.982 163.995 103.494 163.36 102.466 162.09C101.44 160.822 100.927 158.979 100.927 156.562C100.927 154.185 101.44 152.359 102.466 151.083C103.494 149.808 104.982 149.17 106.929 149.17ZM106.929 152.05C106.486 152.05 106.137 152.194 105.882 152.481C105.627 152.771 105.441 153.241 105.326 153.891C105.213 154.544 105.157 155.434 105.157 156.562C105.157 157.717 105.213 158.62 105.326 159.269C105.441 159.922 105.627 160.392 105.882 160.68C106.137 160.97 106.486 161.115 106.929 161.115C107.386 161.115 107.742 160.97 107.997 160.68C108.252 160.392 108.433 159.922 108.541 159.269C108.648 158.62 108.702 157.717 108.702 156.562C108.702 155.448 108.644 154.561 108.529 153.903C108.416 153.245 108.228 152.771 107.965 152.481C107.704 152.194 107.359 152.05 106.929 152.05ZM126.77 149.573L127.657 163.592H123.729L123.705 158.556V156.985C123.705 155.508 123.738 154.158 123.805 152.936L122.496 162.162H118.669L117.259 152.936C117.393 154.87 117.46 156.515 117.46 157.872V158.556L117.42 163.592H113.536L114.419 149.573H119.398L120.643 158.697L121.751 149.573H126.77ZM141.37 149.573L142.257 163.592H138.329L138.308 158.556V156.985C138.308 155.508 138.342 154.158 138.409 152.936L137.1 162.162H133.273L131.863 152.936C131.997 154.87 132.064 156.515 132.064 157.872V158.556L132.024 163.592H128.136L129.022 149.573H133.998L135.247 158.697L136.355 149.573H141.37ZM153.758 149.573V159.12C153.758 160.047 153.56 160.876 153.162 161.606C152.767 162.339 152.167 162.917 151.361 163.338C150.556 163.763 149.562 163.975 148.38 163.975C146.594 163.975 145.247 163.543 144.339 162.678C143.434 161.81 142.982 160.624 142.982 159.12V149.573H147.051V159C147.051 159.725 147.151 160.251 147.353 160.579C147.554 160.909 147.897 161.074 148.38 161.074C148.85 161.074 149.186 160.909 149.387 160.579C149.589 160.251 149.689 159.725 149.689 159V149.573H153.758ZM165.421 149.573V163.592H160.426L157.908 153.178L157.968 153.662C158.116 154.655 158.23 155.569 158.311 156.401C158.391 157.234 158.432 158.154 158.432 159.161V163.592H154.927V149.573H159.882L162.46 160.027L162.4 159.624C162.239 158.563 162.118 157.65 162.037 156.885C161.957 156.119 161.916 155.219 161.916 154.185V149.573H165.421ZM166.811 149.573H170.88V163.592H166.811V149.573ZM178.047 149.17C179.672 149.17 181.082 149.714 182.277 150.801L180.424 152.997C180.061 152.701 179.716 152.476 179.389 152.32C179.058 152.167 178.705 152.09 178.329 152.09C177.617 152.09 177.08 152.449 176.718 153.166C176.355 153.886 176.174 155.011 176.174 156.542C176.174 158.073 176.355 159.188 176.718 159.886C177.08 160.584 177.624 160.933 178.349 160.933C178.752 160.933 179.121 160.849 179.457 160.68C179.793 160.513 180.196 160.242 180.666 159.866L182.418 162.061C181.868 162.639 181.223 163.105 180.484 163.459C179.746 163.816 178.933 163.995 178.047 163.995C176.167 163.995 174.68 163.36 173.587 162.09C172.492 160.822 171.944 158.973 171.944 156.542C171.944 154.984 172.199 153.651 172.709 152.542C173.219 151.435 173.935 150.596 174.856 150.024C175.775 149.454 176.838 149.17 178.047 149.17ZM193.98 163.592H189.791L189.327 160.833H186.507L186.044 163.592H181.915L185.54 149.573H190.375L193.98 163.592ZM187.897 152.413L186.971 158.013H188.844L187.897 152.413ZM193.578 149.573H203.79L203.387 152.594H200.628V163.592H196.559V152.594H193.578V149.573ZM204.354 149.573H208.423V163.592H204.354V149.573ZM215.489 149.17C217.437 149.17 218.92 149.797 219.941 151.051C220.962 152.308 221.472 154.145 221.472 156.562C221.472 158.939 220.959 160.772 219.933 162.061C218.904 163.351 217.423 163.995 215.489 163.995C213.542 163.995 212.056 163.36 211.03 162.09C210.001 160.822 209.487 158.979 209.487 156.562C209.487 154.185 210.001 152.359 211.03 151.083C212.056 149.808 213.542 149.17 215.489 149.17ZM215.489 152.05C215.046 152.05 214.697 152.194 214.442 152.481C214.187 152.771 214.003 153.241 213.89 153.891C213.774 154.544 213.717 155.434 213.717 156.562C213.717 157.717 213.774 158.62 213.89 159.269C214.003 159.922 214.187 160.392 214.442 160.68C214.697 160.97 215.046 161.115 215.489 161.115C215.946 161.115 216.302 160.97 216.557 160.68C216.812 160.392 216.993 159.922 217.101 159.269C217.208 158.62 217.262 157.717 217.262 156.562C217.262 155.448 217.206 154.561 217.093 153.903C216.977 153.245 216.789 152.771 216.529 152.481C216.266 152.194 215.919 152.05 215.489 152.05ZM233.034 149.573V163.592H228.039L225.521 153.178L225.581 153.662C225.729 154.655 225.843 155.569 225.924 156.401C226.004 157.234 226.044 158.154 226.044 159.161V163.592H222.539V149.573H227.495L230.073 160.027L230.013 159.624C229.851 158.563 229.731 157.65 229.65 156.885C229.569 156.119 229.529 155.219 229.529 154.185V149.573H233.034ZM241.937 149.915H245.422V163.592H241.635V153.621L239.178 155.293L237.466 152.795L241.937 149.915ZM252.186 149.573C253.825 149.573 255.084 150.186 255.965 151.414C256.843 152.644 257.283 154.427 257.283 156.764C257.283 159.141 256.846 160.94 255.973 162.162C255.1 163.384 253.838 163.995 252.186 163.995C250.535 163.995 249.266 163.384 248.379 162.162C247.493 160.94 247.05 159.141 247.05 156.764C247.05 154.387 247.49 152.594 248.371 151.385C249.249 150.177 250.521 149.573 252.186 149.573ZM252.186 152.393C251.877 152.393 251.642 152.509 251.481 152.743C251.32 152.979 251.206 153.402 251.139 154.012C251.072 154.624 251.038 155.542 251.038 156.764C251.038 158.013 251.072 158.942 251.139 159.552C251.206 160.164 251.317 160.584 251.473 160.812C251.626 161.041 251.864 161.155 252.186 161.155C252.509 161.155 252.748 161.047 252.903 160.833C253.056 160.618 253.164 160.204 253.226 159.592C253.285 158.982 253.314 158.039 253.314 156.764C253.314 155.501 253.285 154.568 253.226 153.964C253.164 153.359 253.056 152.946 252.903 152.723C252.748 152.503 252.509 152.393 252.186 152.393ZM262.197 149.915H265.682V163.592H261.895V153.621L259.438 155.293L257.726 152.795L262.197 149.915Z" fill="#534F3C"/>
</g>
</g>
</g>
</g>
<g clip-path="url(#clip8_2_35)">
<g clip-path="url(#clip9_2_35)">
<path d="M47.0443 156.583C47.0443 146.614 55.1248 138.534 65.0931 138.534C75.0613 138.534 83.1419 146.614 83.1419 156.583C83.1419 166.551 75.0613 174.631 65.0931 174.631C55.1248 174.631 47.0443 166.551 47.0443 156.583ZM65.0931 173.294C74.3228 173.294 81.8051 165.812 81.8051 156.583C81.8051 147.353 74.3228 139.871 65.0931 139.871C55.8634 139.871 48.3811 147.353 48.3811 156.583C48.3811 165.812 55.8634 173.294 65.0931 173.294Z" fill="#F7D65A"/>
<g clip-path="url(#clip10_2_35)">
<g clip-path="url(#clip11_2_35)">
<path d="M68.7041 150.327C68.7316 150.366 68.7185 150.419 68.6756 150.443C68.6324 150.469 68.5752 150.457 68.5478 150.418L68.2286 149.963C68.2012 149.924 68.2142 149.872 68.257 149.846C68.3003 149.821 68.3575 149.833 68.3851 149.872L68.7041 150.327Z" fill="#F7D65A"/>
<path d="M68.1465 150.814C68.1898 150.836 68.2032 150.887 68.1772 150.93C68.1516 150.972 68.0956 150.99 68.0527 150.969L67.5545 150.722C67.5117 150.701 67.4979 150.649 67.524 150.606C67.5497 150.564 67.6057 150.546 67.6485 150.568L68.1465 150.814Z" fill="#F7D65A"/>
<path d="M68.0181 151.453C68.0659 151.446 68.1067 151.48 68.1098 151.53C68.1136 151.58 68.0776 151.626 68.0302 151.633L67.481 151.718C67.4334 151.725 67.3925 151.691 67.3895 151.641C67.386 151.591 67.4217 151.545 67.4689 151.537L68.0181 151.453Z" fill="#F7D65A"/>
<path d="M61.5667 150.327C61.5393 150.366 61.5523 150.419 61.5951 150.443C61.6383 150.469 61.6956 150.457 61.7231 150.418L62.0423 149.963C62.0697 149.924 62.0567 149.872 62.0139 149.846C61.9707 149.821 61.9134 149.833 61.8861 149.872L61.5667 150.327Z" fill="#F7D65A"/>
<path d="M62.1243 150.814C62.081 150.836 62.0677 150.887 62.0936 150.93C62.1195 150.972 62.1752 150.99 62.2183 150.969L62.7161 150.722C62.7591 150.701 62.7727 150.649 62.7466 150.606C62.7207 150.564 62.6649 150.546 62.6219 150.568L62.1243 150.814Z" fill="#F7D65A"/>
<path d="M62.2527 151.453C62.2051 151.446 62.1644 151.48 62.1612 151.53C62.1575 151.58 62.1934 151.626 62.2408 151.633L62.7898 151.718C62.8372 151.725 62.8784 151.691 62.8815 151.641C62.8848 151.591 62.8491 151.545 62.8019 151.537L62.2527 151.453Z" fill="#F7D65A"/>
<path d="M60.6891 162.643V159.487V159.36C61.2049 159.321 61.5861 159.187 61.5861 159.027C61.5861 158.836 61.0491 158.682 60.3864 158.682C59.724 158.682 59.1869 158.836 59.1869 159.027C59.1869 159.186 59.5632 159.319 60.0739 159.359V159.487V162.643C59.3929 162.676 58.882 162.813 58.882 162.978C58.882 163.166 59.5554 163.319 60.3864 163.319C61.2174 163.319 61.8909 163.166 61.8909 162.978C61.8907 162.813 61.3749 162.675 60.6891 162.643Z" fill="#F7D65A"/>
<path d="M62.8851 158.775C62.8191 158.124 62.3939 157.533 61.611 157.533L59.145 157.532C58.4203 157.532 57.9482 158.073 57.8855 158.775H57.882V158.787H57.8782L57.8778 162.787C57.8778 163.088 58.1542 163.332 58.4945 163.332C58.8356 163.332 59.1116 163.088 59.1116 162.787L59.112 158.905H59.1138C59.1333 158.694 59.695 158.524 60.3871 158.524C61.0789 158.524 61.6407 158.694 61.6599 158.905H61.662L61.6605 162.787C61.6605 163.088 61.9367 163.332 62.2774 163.332C62.6179 163.332 62.8938 163.088 62.8938 162.787L62.8951 158.905L62.8953 158.775H62.8851Z" fill="#F7D65A"/>
<path d="M70.1352 162.643V159.487V159.36C70.651 159.321 71.0322 159.187 71.0322 159.027C71.0322 158.836 70.4951 158.682 69.8325 158.682C69.1701 158.682 68.633 158.836 68.633 159.027C68.633 159.186 69.0093 159.319 69.52 159.359V159.487V162.643C68.839 162.676 68.3282 162.813 68.3282 162.978C68.3282 163.166 69.0017 163.319 69.8325 163.319C70.6633 163.319 71.337 163.166 71.337 162.978C71.3366 162.813 70.8208 162.675 70.1352 162.643Z" fill="#F7D65A"/>
<path d="M72.4045 156.83V154.816C72.4045 154.023 71.9173 153.388 71.1381 153.388L68.6736 153.389C67.8188 153.389 67.3907 154.105 67.3907 154.836V156.83H63.0041V154.836C63.0041 154.105 62.5531 153.389 61.6981 153.389L59.2448 153.388C58.4658 153.388 57.9906 154.023 57.9906 154.816V156.83H54.6483V157.875H75.5379V156.83H72.4045ZM71.5689 154.95V156.83H71.2633L71.2629 154.95H71.5689ZM68.2265 154.95H68.5207L68.5211 156.83H68.2265V154.95ZM62.1685 154.95V156.83H61.8287L61.8291 154.95H62.1685ZM58.8262 154.95H59.0351V156.83H58.8262V154.95Z" fill="#F7D65A"/>
<path d="M72.3307 158.775C72.2647 158.124 71.8398 157.533 71.0567 157.533L68.5907 157.532C67.8662 157.532 67.3939 158.073 67.3314 158.775H67.3279V158.787H67.3241L67.3235 162.787C67.3235 163.088 67.5996 163.332 67.9399 163.332C68.2811 163.332 68.557 163.088 68.557 162.787L68.5576 158.905H68.5595C68.5787 158.694 69.1405 158.524 69.8325 158.524C70.5246 158.524 71.0863 158.694 71.1056 158.905H71.1077L71.1062 162.787C71.1062 163.088 71.3821 163.332 71.7231 163.332C72.0636 163.332 72.3395 163.088 72.3395 162.787L72.3408 158.905V158.775H72.3307Z" fill="#F7D65A"/>
<path d="M67.0686 155.557C66.9608 155.496 66.9308 155.491 66.7313 155.536V155.395C66.7313 155.386 66.7231 155.379 66.7131 155.379H66.3663V155.38H66.1606H65.9489H65.7484V155.379H65.4633H65.4282H65.3914C65.3814 155.379 65.3732 155.386 65.3732 155.395V156.493C65.3732 156.657 65.5253 156.791 65.7127 156.791H66.3663H66.3916C66.579 156.791 66.7311 156.657 66.7311 156.493V156.448C66.832 156.399 66.9805 156.307 67.0858 156.155C67.2604 155.904 67.2036 155.633 67.0686 155.557ZM67.0559 155.897C67.0135 156.049 66.9226 156.192 66.7935 156.26C66.7735 156.271 66.7528 156.28 66.7311 156.287V155.765C66.7467 155.73 66.7964 155.635 66.8831 155.626C66.9283 155.621 66.9755 155.634 67.0114 155.664C67.0605 155.707 67.0876 155.784 67.0559 155.897Z" fill="#F7D65A"/>
<path d="M63.1819 156.155C63.2874 156.307 63.4357 156.399 63.5368 156.448V156.493C63.5368 156.657 63.6889 156.791 63.8762 156.791H63.9017H64.5552C64.7425 156.791 64.8946 156.657 64.8946 156.493V155.395C64.8946 155.386 64.8865 155.379 64.8764 155.379H64.8397H64.8044H64.5192V155.38H64.3187H64.1071H63.9015V155.379H63.5547C63.5447 155.379 63.5366 155.386 63.5366 155.395V155.535C63.3371 155.491 63.307 155.496 63.199 155.557C63.0645 155.633 63.0074 155.904 63.1819 156.155ZM63.2564 155.665C63.2922 155.634 63.3394 155.621 63.3845 155.626C63.4712 155.636 63.5209 155.73 63.5366 155.766V156.287C63.5148 156.28 63.4942 156.271 63.4743 156.26C63.3452 156.192 63.2541 156.049 63.2117 155.897C63.1802 155.784 63.2074 155.707 63.2564 155.665Z" fill="#F7D65A"/>
<path d="M61.6793 152.3C61.6434 152.248 61.5863 152.19 61.5452 152.127C61.5466 152.104 61.5521 152.082 61.5521 152.059C61.5521 151.451 61.0595 150.959 60.4518 150.959C59.8441 150.959 59.3516 151.451 59.3516 152.059C59.3516 152.666 59.8439 153.159 60.4518 153.159C60.917 153.159 61.3127 152.87 61.4737 152.462C61.5293 152.398 61.5531 152.439 61.6482 152.419C61.7244 152.403 61.7426 152.39 61.6793 152.3Z" fill="#F7D65A"/>
<path d="M60.8905 152.463L60.964 152.774L61.2859 152.698L60.8905 152.463Z" fill="#F7D65A"/>
<path d="M69.8652 150.959C69.2577 150.959 68.7649 151.451 68.7649 152.059C68.7649 152.068 68.7674 152.076 68.7676 152.085C68.7269 152.158 68.6594 152.223 68.6191 152.28C68.556 152.37 68.5742 152.383 68.6504 152.399C68.7455 152.419 68.7691 152.378 68.8249 152.441C68.8305 152.448 68.8345 152.447 68.8378 152.443C68.9941 152.861 69.3933 153.159 69.8652 153.159C70.4728 153.159 70.9656 152.666 70.9656 152.059C70.9654 151.451 70.4728 150.959 69.8652 150.959Z" fill="#F7D65A"/>
<path d="M69.4534 152.442L69.3799 152.753L69.058 152.677L69.4534 152.442Z" fill="#F7D65A"/>
</g>
</g>
</g>
</g>
</g>
</g>
</g>
</g>
<defs>
<clipPath id="clip0_2_35">
<rect width="313" height="313" fill="white"/>
</clipPath>
<clipPath id="clip1_2_35">
<rect width="219.1" height="35.9324" fill="white" transform="translate(46.8172 138.616)"/>
</clipPath>
<clipPath id="clip2_2_35">
<rect width="218.646" height="36.0977" fill="white" transform="translate(47.0443 138.534)"/>
</clipPath>
<clipPath id="clip3_2_35">
<rect width="218.646" height="36.0977" fill="white" transform="translate(47.0443 138.534)"/>
</clipPath>
<clipPath id="clip4_2_35">
<rect width="175.548" height="14.8254" fill="white" transform="translate(90.1418 149.17)"/>
</clipPath>
<clipPath id="clip5_2_35">
<rect width="175.548" height="14.8254" fill="white" transform="translate(90.1418 149.17)"/>
</clipPath>
<clipPath id="clip6_2_35">
<rect width="175.548" height="14.8254" fill="white" transform="translate(90.1418 149.17)"/>
</clipPath>
<clipPath id="clip7_2_35">
<rect width="175.548" height="14.8254" fill="white" transform="translate(90.1418 149.17)"/>
</clipPath>
<clipPath id="clip8_2_35">
<rect width="36.0977" height="36.0977" fill="white" transform="translate(47.0443 138.534)"/>
</clipPath>
<clipPath id="clip9_2_35">
<rect width="36.0977" height="36.0977" fill="white" transform="translate(47.0443 138.534)"/>
</clipPath>
<clipPath id="clip10_2_35">
<rect width="20.8897" height="13.4987" fill="white" transform="translate(54.6483 149.833)"/>
</clipPath>
<clipPath id="clip11_2_35">
<rect width="20.8897" height="13.4987" fill="white" transform="translate(54.6483 149.833)"/>
</clipPath>
</defs>
</svg>
