<svg width="281" height="46" viewBox="0 0 281 46" fill="none" xmlns="http://www.w3.org/2000/svg">
<g clip-path="url(#clip0_2_188)">
<g clip-path="url(#clip1_2_188)">
<g clip-path="url(#clip2_2_188)">
<g clip-path="url(#clip3_2_188)">
<g clip-path="url(#clip4_2_188)">
<g clip-path="url(#clip5_2_188)">
<g clip-path="url(#clip6_2_188)">
<g clip-path="url(#clip7_2_188)">
<path d="M63.117 13.6162C65.1971 13.6162 67.0022 14.3125 68.5322 15.705L66.1598 18.5157C65.6957 18.1375 65.2538 17.8487 64.8344 17.6493C64.4115 17.4533 63.9593 17.3553 63.478 17.3553C62.5668 17.3553 61.8792 17.8143 61.415 18.7324C60.9509 19.6538 60.7188 21.0944 60.7188 23.0543C60.7188 25.0141 60.9509 26.4409 61.415 27.3349C61.8792 28.2288 62.5754 28.6758 63.5038 28.6758C64.0195 28.6758 64.4923 28.5675 64.9221 28.3509C65.3518 28.1377 65.8676 27.7905 66.4693 27.3091L68.7127 30.1199C68.0079 30.8591 67.1827 31.4557 66.2372 31.9095C65.2917 32.3668 64.2516 32.5954 63.117 32.5954C60.7102 32.5954 58.8071 31.7823 57.4077 30.156C56.0049 28.5331 55.3035 26.1659 55.3035 23.0543C55.3035 21.0601 55.6301 19.353 56.2834 17.933C56.9367 16.5164 57.853 15.4419 59.0323 14.7096C60.2082 13.9807 61.5697 13.6162 63.117 13.6162ZM76.7841 13.6162C79.2768 13.6162 81.1765 14.419 82.483 16.0247C83.7895 17.6338 84.4428 19.9856 84.4428 23.08C84.4428 26.1229 83.7844 28.4695 82.4675 30.1199C81.1541 31.7703 79.2596 32.5954 76.7841 32.5954C74.2913 32.5954 72.3865 31.7823 71.0697 30.156C69.7563 28.5331 69.0995 26.1745 69.0995 23.08C69.0995 20.0372 69.7563 17.6992 71.0697 16.066C72.3865 14.4328 74.2913 13.6162 76.7841 13.6162ZM76.7841 17.3038C76.2168 17.3038 75.7698 17.4877 75.4432 17.8556C75.1165 18.2269 74.8793 18.8286 74.7314 19.6607C74.587 20.4962 74.5148 21.636 74.5148 23.08C74.5148 24.5585 74.587 25.7138 74.7314 26.5458C74.8793 27.3813 75.1165 27.983 75.4432 28.3509C75.7698 28.7222 76.2168 28.9079 76.7841 28.9079C77.3686 28.9079 77.8242 28.7222 78.1508 28.3509C78.4774 27.983 78.7095 27.3813 78.847 26.5458C78.9846 25.7138 79.0533 24.5585 79.0533 23.08C79.0533 21.6532 78.9794 20.5185 78.8316 19.6762C78.6872 18.8338 78.4465 18.2269 78.1095 17.8556C77.776 17.4877 77.3342 17.3038 76.7841 17.3038ZM102.184 14.132L103.319 32.0797H98.2904L98.2595 25.633V23.6216C98.2595 21.7305 98.3025 20.0028 98.3884 18.4384L96.7123 30.2488H91.8127L90.0077 18.4384C90.1796 20.9139 90.2655 23.0199 90.2655 24.7562V25.633L90.2139 32.0797H85.2422L86.3717 14.132H92.7462L94.3399 25.8135L95.7582 14.132H102.184ZM120.875 14.132L122.009 32.0797H116.981L116.955 25.633V23.6216C116.955 21.7305 116.998 20.0028 117.084 18.4384L115.408 30.2488H110.508L108.703 18.4384C108.875 20.9139 108.961 23.0199 108.961 24.7562V25.633L108.91 32.0797H103.933L105.067 14.132H111.437L113.035 25.8135L114.454 14.132H120.875ZM136.734 14.132V26.355C136.734 27.5412 136.479 28.6019 135.97 29.5371C135.465 30.4758 134.697 31.215 133.665 31.7548C132.634 32.298 131.361 32.5697 129.849 32.5697C127.562 32.5697 125.838 32.0161 124.676 30.909C123.517 29.7984 122.938 28.2804 122.938 26.355V14.132H128.147V26.2003C128.147 27.1286 128.276 27.8025 128.533 28.222C128.791 28.6449 129.23 28.8563 129.849 28.8563C130.45 28.8563 130.88 28.6449 131.138 28.222C131.396 27.8025 131.525 27.1286 131.525 26.2003V14.132H136.734ZM151.664 14.132V32.0797H145.269L142.046 18.7478L142.123 19.3667C142.312 20.6389 142.458 21.8079 142.562 22.8737C142.665 23.9396 142.716 25.1172 142.716 26.4066V32.0797H138.229V14.132H144.573L147.874 27.5154L147.796 26.9997C147.59 25.6416 147.435 24.4725 147.332 23.4926C147.229 22.5127 147.177 21.3609 147.177 20.0372V14.132H151.664ZM153.444 14.132H158.653V32.0797H153.444V14.132ZM167.828 13.6162C169.908 13.6162 171.713 14.3125 173.243 15.705L170.871 18.5157C170.406 18.1375 169.965 17.8487 169.545 17.6493C169.122 17.4533 168.67 17.3553 168.189 17.3553C167.278 17.3553 166.59 17.8143 166.126 18.7324C165.662 19.6538 165.429 21.0944 165.429 23.0543C165.429 25.0141 165.662 26.4409 166.126 27.3349C166.59 28.2288 167.286 28.6758 168.214 28.6758C168.73 28.6758 169.203 28.5675 169.633 28.3509C170.063 28.1377 170.578 27.7905 171.18 27.3091L173.423 30.1199C172.719 30.8591 171.893 31.4557 170.948 31.9095C170.002 32.3668 168.962 32.5954 167.828 32.5954C165.421 32.5954 163.518 31.7823 162.118 30.156C160.716 28.5331 160.014 26.1659 160.014 23.0543C160.014 21.0601 160.341 19.353 160.994 17.933C161.647 16.5164 162.564 15.4419 163.743 14.7096C164.919 13.9807 166.28 13.6162 167.828 13.6162ZM188.225 32.0797H182.862L182.268 28.5469H178.658L178.065 32.0797H172.779L177.42 14.132H183.609L188.225 32.0797ZM180.438 17.7679L179.251 24.9367H181.65L180.438 17.7679ZM187.709 14.132H200.783L200.268 18H196.735V32.0797H191.526V18H187.709V14.132ZM201.506 14.132H206.715V32.0797H201.506V14.132ZM215.761 13.6162C218.253 13.6162 220.153 14.419 221.46 16.0247C222.766 17.6338 223.419 19.9856 223.419 23.08C223.419 26.1229 222.763 28.4695 221.449 30.1199C220.132 31.7703 218.236 32.5954 215.761 32.5954C213.268 32.5954 211.365 31.7823 210.051 30.156C208.734 28.5331 208.076 26.1745 208.076 23.08C208.076 20.0372 208.734 17.6992 210.051 16.066C211.365 14.4328 213.268 13.6162 215.761 13.6162ZM215.761 17.3038C215.193 17.3038 214.746 17.4877 214.42 17.8556C214.093 18.2269 213.857 18.8286 213.713 19.6607C213.565 20.4962 213.491 21.636 213.491 23.08C213.491 24.5585 213.565 25.7138 213.713 26.5458C213.857 27.3813 214.093 27.983 214.42 28.3509C214.746 28.7222 215.193 28.9079 215.761 28.9079C216.345 28.9079 216.801 28.7222 217.127 28.3509C217.454 27.983 217.686 27.3813 217.824 26.5458C217.961 25.7138 218.03 24.5585 218.03 23.08C218.03 21.6532 217.958 20.5185 217.813 19.6762C217.665 18.8338 217.425 18.2269 217.091 17.8556C216.754 17.4877 216.311 17.3038 215.761 17.3038ZM238.221 14.132V32.0797H231.826L228.603 18.7478L228.68 19.3667C228.869 20.6389 229.015 21.8079 229.118 22.8737C229.221 23.9396 229.273 25.1172 229.273 26.4066V32.0797H224.786V14.132H231.13L234.43 27.5154L234.353 26.9997C234.147 25.6416 233.992 24.4725 233.889 23.4926C233.786 22.5127 233.734 21.3609 233.734 20.0372V14.132H238.221ZM249.619 14.5703H254.08V32.0797H249.232V19.3151L246.086 21.4555L243.894 18.2579L249.619 14.5703ZM262.739 14.132C264.837 14.132 266.449 14.9176 267.577 16.4889C268.701 18.0636 269.263 20.3466 269.263 23.3379C269.263 26.3808 268.705 28.6844 267.587 30.2488C266.47 31.8132 264.854 32.5954 262.739 32.5954C260.625 32.5954 259 31.8132 257.866 30.2488C256.731 28.6844 256.164 26.3808 256.164 23.3379C256.164 20.295 256.728 18 257.855 16.4528C258.98 14.9056 260.608 14.132 262.739 14.132ZM262.739 17.7421C262.344 17.7421 262.043 17.8917 261.837 18.1908C261.63 18.4934 261.484 19.0349 261.398 19.8154C261.312 20.5993 261.269 21.7735 261.269 23.3379C261.269 24.9367 261.312 26.1263 261.398 26.9068C261.484 27.6908 261.627 28.2288 261.826 28.5211C262.022 28.8134 262.327 28.9595 262.739 28.9595C263.152 28.9595 263.458 28.8219 263.657 28.5469C263.853 28.2718 263.991 27.7423 264.07 26.9584C264.146 26.1779 264.183 24.9711 264.183 23.3379C264.183 21.7219 264.146 20.5271 264.07 19.7535C263.991 18.9799 263.853 18.4504 263.657 18.165C263.458 17.8831 263.152 17.7421 262.739 17.7421ZM275.555 14.5703H280.017V32.0797H275.169V19.3151L272.023 21.4555L269.831 18.2579L275.555 14.5703Z" fill="#534F3C"/>
</g>
</g>
</g>
</g>
<g clip-path="url(#clip8_2_188)">
<g clip-path="url(#clip9_2_188)">
<path d="M0.120667 23.1058C0.120667 10.3446 10.4653 0 23.2264 0C35.9876 0 46.3322 10.3446 46.3322 23.1058C46.3322 35.8669 35.9876 46.2116 23.2264 46.2116C10.4653 46.2116 0.120667 35.8669 0.120667 23.1058ZM23.2264 44.5001C35.0421 44.5001 44.6208 34.9215 44.6208 23.1058C44.6208 11.2901 35.0421 1.71141 23.2264 1.71141C11.4108 1.71141 1.83208 11.2901 1.83208 23.1058C1.83208 34.9215 11.4108 44.5001 23.2264 44.5001Z" fill="#F7D65A"/>
<g clip-path="url(#clip10_2_188)">
<g clip-path="url(#clip11_2_188)">
<path d="M27.8492 15.0976C27.8845 15.1479 27.8676 15.2147 27.8128 15.2463C27.7575 15.2786 27.6842 15.2639 27.6492 15.2137L27.2405 14.6315C27.2055 14.5812 27.2221 14.5143 27.2769 14.4822C27.3323 14.4502 27.4055 14.4651 27.4408 14.5154L27.8492 15.0976Z" fill="#F7D65A"/>
<path d="M27.1355 15.7213C27.1908 15.7485 27.2079 15.8149 27.1748 15.8692C27.1419 15.9237 27.0702 15.9462 27.0154 15.9189L26.3776 15.6033C26.3227 15.5763 26.3051 15.5095 26.3385 15.4552C26.3714 15.4006 26.4431 15.3784 26.4979 15.4057L27.1355 15.7213Z" fill="#F7D65A"/>
<path d="M26.971 16.5388C27.0322 16.5295 27.0844 16.5739 27.0884 16.6378C27.0932 16.7012 27.0472 16.7605 26.9865 16.7696L26.2834 16.8782C26.2225 16.8876 26.17 16.8432 26.1663 16.7793C26.1618 16.7159 26.2075 16.6565 26.2679 16.6472L26.971 16.5388Z" fill="#F7D65A"/>
<path d="M18.7121 15.0976C18.677 15.1479 18.6936 15.2147 18.7484 15.2463C18.8038 15.2786 18.8771 15.2639 18.9124 15.2137L19.321 14.6315C19.356 14.5812 19.3394 14.5143 19.2846 14.4822C19.2293 14.4502 19.156 14.4651 19.121 14.5154L18.7121 15.0976Z" fill="#F7D65A"/>
<path d="M19.4258 15.7213C19.3705 15.7485 19.3534 15.8149 19.3865 15.8692C19.4197 15.9237 19.4911 15.9462 19.5462 15.9189L20.1835 15.6033C20.2385 15.5763 20.2559 15.5095 20.2225 15.4552C20.1893 15.4006 20.1179 15.3784 20.0628 15.4057L19.4258 15.7213Z" fill="#F7D65A"/>
<path d="M19.5903 16.5388C19.5293 16.5295 19.4772 16.5739 19.4732 16.6378C19.4683 16.7012 19.5143 16.7605 19.575 16.7696L20.2778 16.8782C20.3385 16.8876 20.3912 16.8432 20.3952 16.7793C20.3995 16.7159 20.3538 16.6565 20.2933 16.6472L19.5903 16.5388Z" fill="#F7D65A"/>
<path d="M17.5886 30.8635V26.8235V26.6606C18.2489 26.6109 18.7369 26.4397 18.7369 26.2343C18.7369 25.9905 18.0494 25.7931 17.2011 25.7931C16.3531 25.7931 15.6655 25.9905 15.6655 26.2343C15.6655 26.4381 16.1472 26.6093 16.801 26.6596V26.8235V30.8646C15.9292 30.9063 15.2751 31.0822 15.2751 31.2924C15.2751 31.5337 16.1373 31.7297 17.2011 31.7297C18.2649 31.7297 19.1271 31.5339 19.1271 31.2924C19.1268 31.0814 18.4665 30.9049 17.5886 30.8635Z" fill="#F7D65A"/>
<path d="M20.3998 25.9126C20.3153 25.079 19.7711 24.3227 18.7688 24.3227L15.6118 24.3217C14.6841 24.3217 14.0797 25.0132 13.9995 25.9126H13.9949V25.9273H13.9901L13.9896 31.049C13.9896 31.4336 14.3434 31.7462 14.779 31.7462C15.2157 31.7462 15.569 31.4333 15.569 31.049L15.5695 26.0792H15.572C15.5968 25.8085 16.3159 25.5914 17.2019 25.5914C18.0876 25.5914 18.8067 25.8085 18.8313 26.0792H18.834L18.8321 31.049C18.8321 31.4336 19.1857 31.7462 19.6218 31.7462C20.0578 31.7462 20.411 31.4333 20.411 31.049L20.4126 26.0792L20.4129 25.9126H20.3998Z" fill="#F7D65A"/>
<path d="M29.6813 30.8635V26.8235V26.6606C30.3416 26.6109 30.8297 26.4397 30.8297 26.2343C30.8297 25.9905 30.1421 25.7931 29.2938 25.7931C28.4458 25.7931 27.7583 25.9905 27.7583 26.2343C27.7583 26.4381 28.2399 26.6093 28.8938 26.6596V26.8235V30.8646C28.022 30.9063 27.3681 31.0822 27.3681 31.2924C27.3681 31.5337 28.2303 31.7297 29.2938 31.7297C30.3574 31.7297 31.2198 31.5339 31.2198 31.2924C31.2193 31.0814 30.559 30.9049 29.6813 30.8635Z" fill="#F7D65A"/>
<path d="M32.5864 23.4227V20.8436C32.5864 19.829 31.9627 19.0157 30.9652 19.0157L27.8102 19.0171C26.7159 19.0171 26.1679 19.9341 26.1679 20.8693V23.4227H20.5522V20.8693C20.5522 19.9341 19.9749 19.0171 18.8803 19.0171L15.7396 19.0157C14.7424 19.0157 14.134 19.829 14.134 20.8436V23.4227H9.85519V24.7598H36.5978V23.4227H32.5864ZM31.5167 21.0158V23.4227H31.1254L31.1249 21.0158H31.5167ZM27.2379 21.0158H27.6144L27.6149 23.4227H27.2379V21.0158ZM19.4825 21.0158V23.4227H19.0474L19.048 21.0158H19.4825ZM15.2037 21.0158H15.4711V23.4227H15.2037V21.0158Z" fill="#F7D65A"/>
<path d="M32.492 25.9126C32.4075 25.079 31.8635 24.3227 30.861 24.3227L27.704 24.3217C26.7766 24.3217 26.1719 25.0132 26.0919 25.9126H26.0874V25.9273H26.0826L26.0818 31.049C26.0818 31.4336 26.4353 31.7462 26.871 31.7462C27.3077 31.7462 27.6609 31.4333 27.6609 31.049L27.6617 26.0792H27.6641C27.6887 25.8085 28.4079 25.5914 29.2938 25.5914C30.1798 25.5914 30.8989 25.8085 30.9235 26.0792H30.9262L30.9243 31.049C30.9243 31.4336 31.2776 31.7462 31.714 31.7462C32.1499 31.7462 32.5032 31.4333 32.5032 31.049L32.5048 26.0792V25.9126H32.492Z" fill="#F7D65A"/>
<path d="M25.7555 21.7929C25.6175 21.7148 25.579 21.7087 25.3236 21.7656V21.5854C25.3236 21.5742 25.3132 21.5651 25.3004 21.5651H24.8564V21.5659H24.593H24.3221H24.0654V21.5651H23.7003H23.6554H23.6083C23.5955 21.5651 23.5851 21.5742 23.5851 21.5854V22.9907C23.5851 23.2014 23.7798 23.3723 24.0196 23.3723H24.8564H24.8888C25.1287 23.3723 25.3234 23.2014 25.3234 22.9907V22.934C25.4525 22.8709 25.6427 22.753 25.7774 22.5588C26.001 22.2374 25.9283 21.8905 25.7555 21.7929ZM25.7392 22.2285C25.6849 22.4235 25.5686 22.6056 25.4033 22.6933C25.3776 22.7072 25.3512 22.7185 25.3234 22.7273V22.0598C25.3434 22.0143 25.4071 21.8935 25.518 21.8812C25.5758 21.8747 25.6362 21.8911 25.6822 21.9306C25.7451 21.9852 25.7798 22.0836 25.7392 22.2285Z" fill="#F7D65A"/>
<path d="M20.7798 22.5588C20.9149 22.7532 21.1047 22.8709 21.2342 22.934V22.9907C21.2342 23.2014 21.4288 23.3723 21.6687 23.3723H21.7014H22.5379C22.7777 23.3723 22.9724 23.2014 22.9724 22.9907V21.5854C22.9724 21.5742 22.962 21.5651 22.9492 21.5651H22.9021H22.8569H22.4919V21.5659H22.2351H21.9642H21.7011V21.5651H21.2572C21.2443 21.5651 21.2339 21.5742 21.2339 21.5854V21.7654C20.9785 21.7084 20.94 21.7148 20.8017 21.7926C20.6295 21.8905 20.5565 22.2374 20.7798 22.5588ZM20.8753 21.9309C20.921 21.8913 20.9814 21.875 21.0392 21.8814C21.1502 21.8937 21.2138 22.0146 21.2339 22.0601V22.7273C21.2061 22.7185 21.1796 22.7072 21.1542 22.6933C20.9889 22.6056 20.8723 22.4235 20.818 22.2285C20.7777 22.0836 20.8124 21.9852 20.8753 21.9309Z" fill="#F7D65A"/>
<path d="M18.8562 17.6232C18.8102 17.5575 18.7372 17.4828 18.6845 17.4015C18.6864 17.3724 18.6933 17.3446 18.6933 17.3149C18.6933 16.537 18.0628 15.9064 17.2848 15.9064C16.5069 15.9064 15.8763 16.537 15.8763 17.3149C15.8763 18.0926 16.5066 18.7237 17.2848 18.7237C17.8804 18.7237 18.3869 18.3525 18.5931 17.8302C18.6642 17.7492 18.6947 17.8008 18.8164 17.7757C18.914 17.7548 18.9372 17.7385 18.8562 17.6232Z" fill="#F7D65A"/>
<path d="M17.8464 17.8315L17.9405 18.2303L18.3526 18.1329L17.8464 17.8315Z" fill="#F7D65A"/>
<path d="M29.3356 15.9064C28.5579 15.9064 27.927 16.537 27.927 17.3149C27.927 17.3264 27.9302 17.3371 27.9305 17.3486C27.8784 17.4411 27.792 17.5246 27.7404 17.5978C27.6596 17.7134 27.6829 17.7294 27.7805 17.75C27.9022 17.7754 27.9324 17.7238 28.0038 17.8046C28.011 17.8129 28.0161 17.8118 28.0204 17.8064C28.2204 18.341 28.7314 18.7234 29.3356 18.7234C30.1135 18.7234 30.7444 18.0926 30.7444 17.3146C30.7441 16.537 30.1135 15.9064 29.3356 15.9064Z" fill="#F7D65A"/>
<path d="M28.8085 17.8044L28.7143 18.2032L28.3022 18.1061L28.8085 17.8044Z" fill="#F7D65A"/>
</g>
</g>
</g>
</g>
</g>
</g>
</g>
</g>
<defs>
<clipPath id="clip0_2_188">
<rect width="280.488" height="46" fill="white"/>
</clipPath>
<clipPath id="clip1_2_188">
<rect width="280.488" height="46" fill="white" transform="translate(-0.170013 0.105835)"/>
</clipPath>
<clipPath id="clip2_2_188">
<rect width="279.906" height="46.2116" fill="white" transform="translate(0.120667)"/>
</clipPath>
<clipPath id="clip3_2_188">
<rect width="279.906" height="46.2116" fill="white" transform="translate(0.120667)"/>
</clipPath>
<clipPath id="clip4_2_188">
<rect width="224.734" height="18.9792" fill="white" transform="translate(55.2934 13.6162)"/>
</clipPath>
<clipPath id="clip5_2_188">
<rect width="224.734" height="18.9792" fill="white" transform="translate(55.2934 13.6162)"/>
</clipPath>
<clipPath id="clip6_2_188">
<rect width="224.734" height="18.9792" fill="white" transform="translate(55.2934 13.6162)"/>
</clipPath>
<clipPath id="clip7_2_188">
<rect width="224.734" height="18.9792" fill="white" transform="translate(55.2934 13.6162)"/>
</clipPath>
<clipPath id="clip8_2_188">
<rect width="46.2116" height="46.2116" fill="white" transform="translate(0.120667)"/>
</clipPath>
<clipPath id="clip9_2_188">
<rect width="46.2116" height="46.2116" fill="white" transform="translate(0.120667)"/>
</clipPath>
<clipPath id="clip10_2_188">
<rect width="26.7426" height="17.2808" fill="white" transform="translate(9.85519 14.4653)"/>
</clipPath>
<clipPath id="clip11_2_188">
<rect width="26.7426" height="17.2808" fill="white" transform="translate(9.85519 14.4653)"/>
</clipPath>
</defs>
</svg>
