<svg width="302" height="50" viewBox="0 0 302 50" fill="none" xmlns="http://www.w3.org/2000/svg">
<g clip-path="url(#clip0_2_539)">
<g clip-path="url(#clip1_2_539)">
<g clip-path="url(#clip2_2_539)">
<g clip-path="url(#clip3_2_539)">
<g clip-path="url(#clip4_2_539)">
<g clip-path="url(#clip5_2_539)">
<g clip-path="url(#clip6_2_539)">
<g clip-path="url(#clip7_2_539)">
<path d="M67.9579 14.6606C70.1976 14.6606 72.1411 15.4103 73.7885 16.9096L71.2341 19.9359C70.7344 19.5287 70.2587 19.2178 69.807 19.0031C69.3517 18.792 68.8649 18.6865 68.3466 18.6865C67.3656 18.6865 66.6252 19.1807 66.1254 20.1692C65.6256 21.1613 65.3758 22.7124 65.3758 24.8225C65.3758 26.9327 65.6256 28.469 66.1254 29.4315C66.6252 30.394 67.3748 30.8753 68.3744 30.8753C68.9297 30.8753 69.4387 30.7587 69.9014 30.5254C70.3642 30.2959 70.9195 29.922 71.5673 29.4037L73.9828 32.4301C73.2239 33.226 72.3355 33.8683 71.3174 34.357C70.2994 34.8493 69.1795 35.0955 67.9579 35.0955C65.3665 35.0955 63.3175 34.22 61.8108 32.469C60.3004 30.7216 59.5452 28.1728 59.5452 24.8225C59.5452 22.6754 59.8969 20.8374 60.6002 19.3085C61.3036 17.7833 62.2902 16.6264 63.56 15.8379C64.826 15.0531 66.292 14.6606 67.9579 14.6606ZM82.6732 14.6606C85.3571 14.6606 87.4025 15.5251 88.8092 17.2539C90.216 18.9864 90.9193 21.5185 90.9193 24.8503C90.9193 28.1266 90.2104 30.6531 88.7926 32.4301C87.3784 34.207 85.3386 35.0955 82.6732 35.0955C79.9893 35.0955 77.9384 34.22 76.5205 32.469C75.1064 30.7216 74.3993 28.1821 74.3993 24.8503C74.3993 21.5741 75.1064 19.0567 76.5205 17.2983C77.9384 15.5399 79.9893 14.6606 82.6732 14.6606ZM82.6732 18.631C82.0624 18.631 81.5811 18.8291 81.2294 19.2252C80.8778 19.625 80.6223 20.2728 80.4631 21.1687C80.3077 22.0683 80.2299 23.2955 80.2299 24.8503C80.2299 26.4422 80.3077 27.686 80.4631 28.5819C80.6223 29.4815 80.8778 30.1293 81.2294 30.5254C81.5811 30.9252 82.0624 31.1251 82.6732 31.1251C83.3025 31.1251 83.7931 30.9252 84.1447 30.5254C84.4964 30.1293 84.7463 29.4815 84.8944 28.5819C85.0425 27.686 85.1165 26.4422 85.1165 24.8503C85.1165 23.314 85.0369 22.0923 84.8777 21.1854C84.7223 20.2784 84.4631 19.625 84.1003 19.2252C83.7412 18.8291 83.2655 18.631 82.6732 18.631ZM110.022 15.2159L111.243 34.5402H105.829L105.796 27.599V25.4334C105.796 23.3973 105.842 21.537 105.935 19.8527L104.13 32.5689H98.8545L96.911 19.8527C97.0961 22.5181 97.1886 24.7855 97.1886 26.655V27.599L97.1331 34.5402H91.7801L92.9961 15.2159H99.8596L101.575 27.7934L103.103 15.2159H110.022ZM130.145 15.2159L131.367 34.5402H125.953L125.925 27.599V25.4334C125.925 23.3973 125.971 21.537 126.064 19.8527L124.259 32.5689H118.984L117.04 19.8527C117.226 22.5181 117.318 24.7855 117.318 26.655V27.599L117.263 34.5402H111.904L113.126 15.2159H119.983L121.705 27.7934L123.232 15.2159H130.145ZM147.221 15.2159V28.3764C147.221 29.6536 146.947 30.7957 146.399 31.8026C145.855 32.8132 145.027 33.6092 143.917 34.1904C142.806 34.7753 141.436 35.0677 139.808 35.0677C137.346 35.0677 135.489 34.4717 134.238 33.2797C132.99 32.084 132.367 30.4495 132.367 28.3764V15.2159H137.975V28.2098C137.975 29.2094 138.114 29.935 138.392 30.3866C138.669 30.8419 139.141 31.0696 139.808 31.0696C140.455 31.0696 140.918 30.8419 141.196 30.3866C141.473 29.935 141.612 29.2094 141.612 28.2098V15.2159H147.221ZM163.297 15.2159V34.5402H156.411L152.94 20.1858L153.024 20.8522C153.227 22.2219 153.385 23.4806 153.496 24.6282C153.607 25.7758 153.662 27.0437 153.662 28.432V34.5402H148.831V15.2159H155.661L159.215 29.6258L159.132 29.0706C158.91 27.6083 158.743 26.3496 158.632 25.2945C158.521 24.2395 158.465 22.9993 158.465 21.5741V15.2159H163.297ZM165.212 15.2159H170.821V34.5402H165.212V15.2159ZM180.699 14.6606C182.939 14.6606 184.883 15.4103 186.53 16.9096L183.976 19.9359C183.476 19.5287 183 19.2178 182.549 19.0031C182.093 18.792 181.606 18.6865 181.088 18.6865C180.107 18.6865 179.367 19.1807 178.867 20.1692C178.367 21.1613 178.117 22.7124 178.117 24.8225C178.117 26.9327 178.367 28.469 178.867 29.4315C179.367 30.394 180.116 30.8753 181.116 30.8753C181.671 30.8753 182.18 30.7587 182.643 30.5254C183.106 30.2959 183.661 29.922 184.309 29.4037L186.724 32.4301C185.966 33.226 185.077 33.8683 184.059 34.357C183.041 34.8493 181.921 35.0955 180.699 35.0955C178.108 35.0955 176.059 34.22 174.552 32.469C173.042 30.7216 172.287 28.1728 172.287 24.8225C172.287 22.6754 172.638 20.8374 173.342 19.3085C174.045 17.7833 175.032 16.6264 176.302 15.8379C177.568 15.0531 179.034 14.6606 180.699 14.6606ZM202.661 34.5402H196.886L196.248 30.7364H192.361L191.722 34.5402H186.03L191.028 15.2159H197.692L202.661 34.5402ZM194.276 19.1308L192.999 26.8494H195.581L194.276 19.1308ZM202.106 15.2159H216.183L215.628 19.3807H211.824V34.5402H206.215V19.3807H202.106V15.2159ZM216.96 15.2159H222.569V34.5402H216.96V15.2159ZM232.309 14.6606C234.993 14.6606 237.038 15.5251 238.445 17.2539C239.851 18.9864 240.555 21.5185 240.555 24.8503C240.555 28.1266 239.848 30.6531 238.434 32.4301C237.016 34.207 234.974 35.0955 232.309 35.0955C229.625 35.0955 227.576 34.22 226.162 32.469C224.744 30.7216 224.035 28.1821 224.035 24.8503C224.035 21.5741 224.744 19.0567 226.162 17.2983C227.576 15.5399 229.625 14.6606 232.309 14.6606ZM232.309 18.631C231.698 18.631 231.217 18.8291 230.865 19.2252C230.513 19.625 230.26 20.2728 230.104 21.1687C229.945 22.0683 229.865 23.2955 229.865 24.8503C229.865 26.4422 229.945 27.686 230.104 28.5819C230.26 29.4815 230.513 30.1293 230.865 30.5254C231.217 30.9252 231.698 31.1251 232.309 31.1251C232.938 31.1251 233.428 30.9252 233.78 30.5254C234.132 30.1293 234.382 29.4815 234.53 28.5819C234.678 27.686 234.752 26.4422 234.752 24.8503C234.752 23.314 234.674 22.0923 234.519 21.1854C234.36 20.2784 234.1 19.625 233.741 19.2252C233.378 18.8291 232.901 18.631 232.309 18.631ZM256.492 15.2159V34.5402H249.606L246.135 20.1858L246.219 20.8522C246.422 22.2219 246.58 23.4806 246.691 24.6282C246.802 25.7758 246.857 27.0437 246.857 28.432V34.5402H242.026V15.2159H248.856L252.41 29.6258L252.327 29.0706C252.105 27.6083 251.938 26.3496 251.827 25.2945C251.716 24.2395 251.661 22.9993 251.661 21.5741V15.2159H256.492ZM268.764 15.6879H273.567V34.5402H268.347V20.7967L264.96 23.1011L262.6 19.6583L268.764 15.6879ZM282.89 15.2159C285.149 15.2159 286.885 16.0618 288.099 17.7536C289.31 19.4491 289.915 21.9072 289.915 25.128C289.915 28.4042 289.313 30.8845 288.11 32.5689C286.907 34.2533 285.167 35.0955 282.89 35.0955C280.614 35.0955 278.865 34.2533 277.643 32.5689C276.421 30.8845 275.81 28.4042 275.81 25.128C275.81 21.8517 276.418 19.3807 277.632 17.7148C278.842 16.0489 280.595 15.2159 282.89 15.2159ZM282.89 19.103C282.465 19.103 282.141 19.264 281.919 19.5861C281.697 19.9119 281.539 20.4949 281.447 21.3353C281.354 22.1793 281.308 23.4436 281.308 25.128C281.308 26.8494 281.354 28.1303 281.447 28.9706C281.539 29.8146 281.693 30.394 281.908 30.7087C282.119 31.0233 282.446 31.1807 282.89 31.1807C283.335 31.1807 283.664 31.0326 283.879 30.7364C284.09 30.4403 284.238 29.8702 284.323 29.0261C284.405 28.1858 284.445 26.8864 284.445 25.128C284.445 23.388 284.405 22.1016 284.323 21.2687C284.238 20.4357 284.09 19.8656 283.879 19.5583C283.664 19.2548 283.335 19.103 282.89 19.103ZM296.69 15.6879H301.493V34.5402H296.273V20.7967L292.886 23.1011L290.526 19.6583L296.69 15.6879Z" fill="#534F3C"/>
</g>
</g>
</g>
</g>
<g clip-path="url(#clip8_2_539)">
<g clip-path="url(#clip9_2_539)">
<path d="M0.130127 24.8779C0.130127 11.138 11.2681 0 25.008 0C38.7479 0 49.8859 11.138 49.8859 24.8779C49.8859 38.6178 38.7479 49.7558 25.008 49.7558C11.2681 49.7558 0.130127 38.6178 0.130127 24.8779ZM25.008 47.9131C37.7299 47.9131 48.0432 37.5998 48.0432 24.8779C48.0432 12.156 37.7299 1.84267 25.008 1.84267C12.2861 1.84267 1.9728 12.156 1.9728 24.8779C1.9728 37.5998 12.2861 47.9131 25.008 47.9131Z" fill="#F7D65A"/>
<g clip-path="url(#clip10_2_539)">
<g clip-path="url(#clip11_2_539)">
<path d="M29.9852 16.2557C30.0232 16.3098 30.0051 16.3818 29.946 16.4158C29.8864 16.4506 29.8075 16.4348 29.7698 16.3807L29.3299 15.7538C29.2921 15.6997 29.31 15.6277 29.369 15.5932C29.4286 15.5586 29.5075 15.5747 29.5455 15.6289L29.9852 16.2557Z" fill="#F7D65A"/>
<path d="M29.2166 16.927C29.2762 16.9564 29.2946 17.0278 29.2589 17.0863C29.2235 17.145 29.1464 17.1692 29.0873 17.1398L28.4006 16.8001C28.3416 16.771 28.3226 16.699 28.3586 16.6405C28.394 16.5818 28.4711 16.5579 28.5302 16.5873L29.2166 16.927Z" fill="#F7D65A"/>
<path d="M29.0396 17.8072C29.1055 17.7972 29.1617 17.845 29.166 17.9138C29.1712 17.982 29.1216 18.0459 29.0563 18.0557L28.2993 18.1726C28.2337 18.1827 28.1772 18.1349 28.1732 18.0661C28.1683 17.9979 28.2175 17.9339 28.2826 17.9239L29.0396 17.8072Z" fill="#F7D65A"/>
<path d="M20.1472 16.2557C20.1095 16.3098 20.1274 16.3818 20.1864 16.4158C20.246 16.4506 20.3249 16.4348 20.3629 16.3807L20.8029 15.7538C20.8406 15.6997 20.8227 15.6277 20.7637 15.5932C20.7041 15.5586 20.6252 15.5747 20.5875 15.6289L20.1472 16.2557Z" fill="#F7D65A"/>
<path d="M20.9157 16.927C20.8561 16.9564 20.8377 17.0278 20.8734 17.0863C20.9091 17.145 20.986 17.1692 21.0453 17.1398L21.7314 16.8001C21.7907 16.771 21.8095 16.699 21.7735 16.6405C21.7378 16.5818 21.6609 16.5579 21.6016 16.5873L20.9157 16.927Z" fill="#F7D65A"/>
<path d="M21.0928 17.8072C21.0271 17.7972 20.971 17.845 20.9667 17.9138C20.9615 17.982 21.011 18.0459 21.0764 18.0557L21.8331 18.1726C21.8984 18.1827 21.9552 18.1349 21.9595 18.0661C21.9641 17.9979 21.9149 17.9339 21.8498 17.9239L21.0928 17.8072Z" fill="#F7D65A"/>
<path d="M18.9377 33.2305V28.8807V28.7053C19.6486 28.6517 20.1741 28.4675 20.1741 28.2463C20.1741 27.9837 19.4338 27.7712 18.5205 27.7712C17.6074 27.7712 16.8672 27.9837 16.8672 28.2463C16.8672 28.4657 17.3857 28.65 18.0897 28.7042V28.8807V33.2317C17.1511 33.2766 16.4468 33.466 16.4468 33.6924C16.4468 33.9521 17.3751 34.1631 18.5205 34.1631C19.6659 34.1631 20.5942 33.9524 20.5942 33.6924C20.5939 33.4652 19.883 33.2751 18.9377 33.2305Z" fill="#F7D65A"/>
<path d="M21.9643 27.8999C21.8733 27.0024 21.2874 26.1882 20.2082 26.1882L16.8091 26.187C15.8103 26.187 15.1595 26.9316 15.0732 27.8999H15.0683V27.9158H15.0631L15.0625 33.4303C15.0625 33.8444 15.4434 34.181 15.9125 34.181C16.3827 34.181 16.7631 33.8441 16.7631 33.4303L16.7636 28.0793H16.7662C16.793 27.7879 17.5673 27.5541 18.5212 27.5541C19.4748 27.5541 20.2491 27.7879 20.2756 28.0793H20.2785L20.2764 33.4303C20.2764 33.8444 20.6571 34.181 21.1267 34.181C21.5961 34.181 21.9764 33.8441 21.9764 33.4303L21.9781 28.0793L21.9784 27.8999H21.9643Z" fill="#F7D65A"/>
<path d="M31.9577 33.2305V28.8807V28.7053C32.6686 28.6517 33.1941 28.4675 33.1941 28.2463C33.1941 27.9837 32.4538 27.7712 31.5405 27.7712C30.6274 27.7712 29.8871 27.9837 29.8871 28.2463C29.8871 28.4657 30.4057 28.65 31.1097 28.7042V28.8807V33.2317C30.171 33.2766 29.467 33.466 29.467 33.6924C29.467 33.9521 30.3953 34.1631 31.5405 34.1631C32.6856 34.1631 33.6142 33.9524 33.6142 33.6924C33.6136 33.4652 32.9027 33.2751 31.9577 33.2305Z" fill="#F7D65A"/>
<path d="M35.0857 25.219V22.4422C35.0857 21.3497 34.4142 20.4741 33.3402 20.4741L29.9431 20.4756C28.7649 20.4756 28.1749 21.4629 28.1749 22.4698V25.219H22.1285V22.4698C22.1285 21.4629 21.5069 20.4756 20.3284 20.4756L16.9468 20.4741C15.8731 20.4741 15.2181 21.3497 15.2181 22.4422V25.219H10.6111V26.6587H39.4047V25.219H35.0857ZM33.9339 22.6276V25.219H33.5127L33.5121 22.6276H33.9339ZM29.3269 22.6276H29.7323L29.7329 25.219H29.3269V22.6276ZM20.9768 22.6276V25.219H20.5083L20.5089 22.6276H20.9768ZM16.3698 22.6276H16.6577V25.219H16.3698V22.6276Z" fill="#F7D65A"/>
<path d="M34.9841 27.8999C34.8931 27.0024 34.3075 26.1882 33.228 26.1882L29.8289 26.187C28.8303 26.187 28.1793 26.9316 28.0932 27.8999H28.0883V27.9158H28.0831L28.0823 33.4303C28.0823 33.8444 28.4629 34.181 28.932 34.181C29.4022 34.181 29.7825 33.8441 29.7825 33.4303L29.7834 28.0793H29.786C29.8125 27.7879 30.5867 27.5541 31.5407 27.5541C32.4946 27.5541 33.2689 27.7879 33.2954 28.0793H33.2982L33.2962 33.4303C33.2962 33.8444 33.6766 34.181 34.1465 34.181C34.6158 34.181 34.9962 33.8441 34.9962 33.4303L34.9979 28.0793V27.8999H34.9841Z" fill="#F7D65A"/>
<path d="M27.7309 23.4643C27.5824 23.3802 27.5409 23.3736 27.2659 23.4349V23.2409C27.2659 23.2288 27.2547 23.219 27.2409 23.219H26.7629V23.2199H26.4793H26.1876H25.9112V23.219H25.5181H25.4698H25.4191C25.4053 23.219 25.394 23.2288 25.394 23.2409V24.754C25.394 24.9809 25.6037 25.1649 25.8619 25.1649H26.7629H26.7977C27.056 25.1649 27.2656 24.9809 27.2656 24.754V24.6929C27.4047 24.625 27.6094 24.498 27.7545 24.289C27.9953 23.9429 27.9169 23.5694 27.7309 23.4643ZM27.7134 23.9334C27.6549 24.1433 27.5297 24.3394 27.3517 24.4338C27.3241 24.4488 27.2956 24.4609 27.2656 24.4704V23.7517C27.2872 23.7027 27.3558 23.5726 27.4752 23.5593C27.5374 23.5524 27.6025 23.57 27.652 23.6126C27.7197 23.6713 27.7571 23.7773 27.7134 23.9334Z" fill="#F7D65A"/>
<path d="M22.3735 24.289C22.5189 24.4983 22.7234 24.625 22.8627 24.6929V24.754C22.8627 24.9809 23.0724 25.1649 23.3306 25.1649H23.3658H24.2664C24.5247 25.1649 24.7343 24.9809 24.7343 24.754V23.2409C24.7343 23.2288 24.7231 23.219 24.7093 23.219H24.6586H24.6099H24.2169V23.2199H23.9405H23.6488H23.3655V23.219H22.8875C22.8737 23.219 22.8625 23.2288 22.8625 23.2409V23.4347C22.5875 23.3733 22.546 23.3802 22.3971 23.464C22.2117 23.5694 22.1331 23.9429 22.3735 24.289ZM22.4763 23.6129C22.5256 23.5703 22.5906 23.5527 22.6528 23.5596C22.7723 23.5729 22.8409 23.703 22.8625 23.752V24.4704C22.8325 24.4609 22.804 24.4488 22.7766 24.4338C22.5987 24.3394 22.4732 24.1433 22.4147 23.9334C22.3712 23.7773 22.4087 23.6713 22.4763 23.6129Z" fill="#F7D65A"/>
<path d="M20.3025 18.9748C20.2529 18.9039 20.1743 18.8236 20.1176 18.7361C20.1196 18.7047 20.1271 18.6747 20.1271 18.6428C20.1271 17.8052 19.4482 17.1262 18.6106 17.1262C17.7729 17.1262 17.094 17.8052 17.094 18.6428C17.094 19.4801 17.7727 20.1596 18.6106 20.1596C19.2518 20.1596 19.7971 19.76 20.0191 19.1976C20.0957 19.1104 20.1286 19.166 20.2596 19.1389C20.3647 19.1164 20.3897 19.0989 20.3025 18.9748Z" fill="#F7D65A"/>
<path d="M19.2151 19.1992L19.3164 19.6285L19.7602 19.5237L19.2151 19.1992Z" fill="#F7D65A"/>
<path d="M31.5854 17.1262C30.7481 17.1262 30.0688 17.8052 30.0688 18.6428C30.0688 18.6552 30.0723 18.6667 30.0726 18.6791C30.0164 18.7787 29.9234 18.8685 29.8679 18.9474C29.7809 19.0718 29.806 19.0891 29.9111 19.1113C30.0421 19.1386 30.0746 19.083 30.1515 19.17C30.1593 19.1789 30.1647 19.1778 30.1693 19.172C30.3847 19.7476 30.935 20.1593 31.5854 20.1593C32.423 20.1593 33.1022 19.4801 33.1022 18.6425C33.102 17.8052 32.423 17.1262 31.5854 17.1262Z" fill="#F7D65A"/>
<path d="M31.018 19.1702L30.9166 19.5995L30.4729 19.495L31.018 19.1702Z" fill="#F7D65A"/>
</g>
</g>
</g>
</g>
</g>
</g>
</g>
</g>
<defs>
<clipPath id="clip0_2_539">
<rect width="302" height="49.528" fill="white"/>
</clipPath>
<clipPath id="clip1_2_539">
<rect width="302" height="49.528" fill="white" transform="translate(-0.182861 0.11377)"/>
</clipPath>
<clipPath id="clip2_2_539">
<rect width="301.374" height="49.7558" fill="white" transform="translate(0.130127)"/>
</clipPath>
<clipPath id="clip3_2_539">
<rect width="301.374" height="49.7558" fill="white" transform="translate(0.130127)"/>
</clipPath>
<clipPath id="clip4_2_539">
<rect width="241.97" height="20.4349" fill="white" transform="translate(59.5342 14.6606)"/>
</clipPath>
<clipPath id="clip5_2_539">
<rect width="241.97" height="20.4349" fill="white" transform="translate(59.5342 14.6606)"/>
</clipPath>
<clipPath id="clip6_2_539">
<rect width="241.97" height="20.4349" fill="white" transform="translate(59.5342 14.6606)"/>
</clipPath>
<clipPath id="clip7_2_539">
<rect width="241.97" height="20.4349" fill="white" transform="translate(59.5342 14.6606)"/>
</clipPath>
<clipPath id="clip8_2_539">
<rect width="49.7558" height="49.7558" fill="white" transform="translate(0.130127)"/>
</clipPath>
<clipPath id="clip9_2_539">
<rect width="49.7558" height="49.7558" fill="white" transform="translate(0.130127)"/>
</clipPath>
<clipPath id="clip10_2_539">
<rect width="28.7936" height="18.6062" fill="white" transform="translate(10.6111 15.575)"/>
</clipPath>
<clipPath id="clip11_2_539">
<rect width="28.7936" height="18.6062" fill="white" transform="translate(10.6111 15.575)"/>
</clipPath>
</defs>
</svg>
