<svg width="16" height="16" viewBox="0 0 16 16" fill="none" xmlns="http://www.w3.org/2000/svg">
<g clip-path="url(#clip0_0_94)">
<path d="M14.67 9.25889L15.9831 3.48111C16.0779 3.06394 15.7609 2.66669 15.3331 2.66669H4.42244L4.16783 1.42197C4.10439 1.11172 3.83139 0.888916 3.51469 0.888916H0.666667C0.298472 0.888916 0 1.18739 0 1.55558V2.00003C0 2.36822 0.298472 2.66669 0.666667 2.66669H2.60786L4.55919 12.2066C4.09236 12.475 3.77778 12.9784 3.77778 13.5556C3.77778 14.4147 4.47422 15.1111 5.33333 15.1111C6.19244 15.1111 6.88889 14.4147 6.88889 13.5556C6.88889 13.1202 6.70981 12.7268 6.42156 12.4445H12.2451C11.9569 12.7268 11.7778 13.1202 11.7778 13.5556C11.7778 14.4147 12.4742 15.1111 13.3333 15.1111C14.1924 15.1111 14.8889 14.4147 14.8889 13.5556C14.8889 12.9397 14.5309 12.4075 14.0117 12.1554L14.1649 11.4811C14.2597 11.0639 13.9427 10.6667 13.5149 10.6667H6.05881L5.877 9.7778H14.0199C14.3312 9.7778 14.601 9.56242 14.67 9.25889Z" fill="#5D5D5D"/>
</g>
<defs>
<clipPath id="clip0_0_94">
<rect width="16" height="16" fill="white"/>
</clipPath>
</defs>
</svg>
