<svg width="29" height="30" viewBox="0 0 29 30" fill="none" xmlns="http://www.w3.org/2000/svg">
<path d="M24.9619 0.483276C25.7721 0.483276 26.5492 0.823936 27.1222 1.43031C27.6951 2.03669 28.017 2.85912 28.017 3.71666V26.3504C28.017 27.2079 27.6951 28.0304 27.1222 28.6367C26.5492 29.2431 25.7721 29.5838 24.9619 29.5838H3.57568C2.7654 29.5838 1.9883 29.2431 1.41535 28.6367C0.842391 28.0304 0.520508 27.2079 0.520508 26.3504V3.71666C0.520508 2.85912 0.842391 2.03669 1.41535 1.43031C1.9883 0.823936 2.7654 0.483276 3.57568 0.483276H24.9619ZM24.1981 25.542V16.9736C24.1981 15.5758 23.6734 14.2352 22.7395 13.2468C21.8056 12.2584 20.5389 11.7031 19.2181 11.7031C17.9197 11.7031 16.4074 12.5438 15.6741 13.8048V12.0103H11.4122V25.542H15.6741V17.5717C15.6741 16.3269 16.6213 15.3084 17.7975 15.3084C18.3647 15.3084 18.9087 15.5468 19.3097 15.9713C19.7108 16.3957 19.9361 16.9714 19.9361 17.5717V25.542H24.1981ZM6.44754 9.4721C7.12817 9.4721 7.78093 9.18594 8.26221 8.67658C8.7435 8.16723 9.01388 7.47639 9.01388 6.75605C9.01388 5.25252 7.86819 4.02384 6.44754 4.02384C5.76285 4.02384 5.1062 4.31169 4.62206 4.82408C4.13791 5.33647 3.86592 6.03142 3.86592 6.75605C3.86592 8.25957 5.02688 9.4721 6.44754 9.4721ZM8.57088 25.542V12.0103H4.33947V25.542H8.57088Z" fill="#DE4E2C"/>
</svg>
