<svg width="28" height="25" viewBox="0 0 28 25" fill="none" xmlns="http://www.w3.org/2000/svg">
<path d="M27.9116 3.51876C26.8995 4.01803 25.8086 4.34613 24.6782 4.50304C25.8349 3.747 26.7286 2.54874 27.1492 1.10798C26.0583 1.82123 24.8491 2.32051 23.5742 2.6058C22.5358 1.37902 21.0769 0.665771 19.4208 0.665771C16.332 0.665771 13.8084 3.40464 13.8084 6.78543C13.8084 7.27044 13.861 7.74119 13.953 8.1834C9.27386 7.92663 5.10732 5.48732 2.33401 1.7927C1.8477 2.69139 1.57168 3.747 1.57168 4.85967C1.57168 6.98514 2.55746 8.86812 4.08212 9.93799C3.14892 9.93799 2.28144 9.65269 1.51911 9.22474V9.26753C1.51911 12.2346 3.46437 14.7167 6.04052 15.2731C5.21343 15.5187 4.34512 15.5529 3.5038 15.3729C3.86079 16.589 4.55994 17.6531 5.50297 18.4155C6.446 19.178 7.58549 19.6006 8.76126 19.6239C6.7682 21.3363 4.29767 22.2619 1.75569 22.2486C1.30881 22.2486 0.861923 22.2201 0.415039 22.163C2.91233 23.9034 5.8828 24.9162 9.06356 24.9162C19.4208 24.9162 25.112 15.5869 25.112 7.49868C25.112 7.22765 25.112 6.97088 25.0988 6.69984C26.2029 5.84395 27.1492 4.75981 27.9116 3.51876V3.51876Z" fill="#DE4E2C"/>
</svg>
