<svg width="23" height="30" viewBox="0 0 23 30" fill="none" xmlns="http://www.w3.org/2000/svg">
<path d="M11.9771 15.0576C12.7333 15.0576 13.3808 14.7724 13.9198 14.202C14.4578 13.6326 14.7268 12.9478 14.7268 12.1475C14.7268 11.3473 14.4578 10.6619 13.9198 10.0916C13.3808 9.52217 12.7333 9.23747 11.9771 9.23747C11.221 9.23747 10.5739 9.52217 10.0359 10.0916C9.49694 10.6619 9.22747 11.3473 9.22747 12.1475C9.22747 12.9478 9.49694 13.6326 10.0359 14.202C10.5739 14.7724 11.221 15.0576 11.9771 15.0576ZM11.9771 29.6078C8.28801 26.2855 5.53286 23.1994 3.71167 20.3495C1.88957 17.5006 0.978516 14.8636 0.978516 12.4385C0.978516 8.80096 2.08433 5.90304 4.29597 3.74475C6.50669 1.58647 9.06708 0.507324 11.9771 0.507324C14.8872 0.507324 17.4476 1.58647 19.6583 3.74475C21.8699 5.90304 22.9757 8.80096 22.9757 12.4385C22.9757 14.8636 22.0651 17.5006 20.244 20.3495C18.4219 23.1994 15.6662 26.2855 11.9771 29.6078Z" fill="#F85C5C"/>
</svg>
