<svg width="202" height="132" viewBox="0 0 202 132" fill="none" xmlns="http://www.w3.org/2000/svg">
<path d="M129.5 131.501L128.025 131.772L130.997 131.603L129.5 131.501ZM0.934325 10.9459C0.351321 11.5344 0.355822 12.4842 0.944378 13.0672L10.5355 22.5678C11.124 23.1508 12.0737 23.1463 12.6568 22.5577C13.2398 21.9692 13.2353 21.0194 12.6467 20.4364L4.1213 11.9914L12.5663 3.46604C13.1493 2.87749 13.1448 1.92775 12.5562 1.34475C11.9677 0.761743 11.0179 0.766243 10.4349 1.3548L0.934325 10.9459ZM201.302 93.7576C196.492 85.3395 181.336 69.3553 159.222 73.5279L159.778 76.4758C180.064 72.6484 194.175 87.3309 198.698 95.2461L201.302 93.7576ZM159.222 73.5279C147.826 75.6781 140.343 86.1694 135.6 97.7454C130.818 109.412 128.594 122.704 128.003 131.4L130.997 131.603C131.572 123.133 133.748 110.174 138.375 98.883C143.04 87.5008 149.974 78.3256 159.778 76.4758L159.222 73.5279ZM130.975 131.231C127.272 111.031 116.409 80.8082 95.8106 55.6512C75.1802 30.455 44.7378 10.2989 1.99289 10.5015L2.00711 13.5015C43.6622 13.3041 73.3032 32.898 93.4894 57.5518C113.708 82.2448 124.395 111.972 128.025 131.772L130.975 131.231Z" fill="black"/>
</svg>
