<svg width="28" height="30" viewBox="0 0 28 30" fill="none" xmlns="http://www.w3.org/2000/svg">
<path d="M27.7114 22.7098C27.4678 24.6777 26.5573 26.4849 25.1492 27.7956C23.741 29.1063 21.9311 29.8312 20.0558 29.8356C9.12327 29.8356 0.228516 20.422 0.228516 8.8517C0.23265 6.86705 0.917616 4.95152 2.15606 3.46125C3.39451 1.97097 5.10217 1.00736 6.96154 0.749577C7.43553 0.693957 7.91394 0.799573 8.32739 1.05111C8.74084 1.30265 9.06784 1.68702 9.26096 2.1485L12.0285 8.98285C12.1721 9.33759 12.2296 9.72467 12.196 10.1089C12.1623 10.4932 12.0385 10.8625 11.8358 11.1832L9.5501 14.8846C10.5851 17.1075 12.2905 18.9021 14.3968 19.9848L17.8528 17.5513C18.1556 17.3353 18.5054 17.2045 18.8691 17.1714C19.2329 17.1382 19.5987 17.2038 19.9319 17.3618L26.3895 20.2763C26.8256 20.4806 27.1888 20.8267 27.4265 21.2643C27.6641 21.7019 27.7639 22.2082 27.7114 22.7098V22.7098Z" fill="#F85C5C"/>
</svg>
