<svg width="34" height="30" viewBox="0 0 34 30" fill="none" xmlns="http://www.w3.org/2000/svg">
<path d="M5.97831 0.121216C4.5198 0.121216 3.12103 0.734403 2.08971 1.82588C1.05839 2.91736 0.479004 4.39773 0.479004 5.94131V6.52623L16.9769 15.9286L33.4748 6.52914V5.94131C33.4748 4.39773 32.8954 2.91736 31.8641 1.82588C30.8328 0.734403 29.434 0.121216 27.9755 0.121216H5.97831ZM33.4748 9.83205L17.6286 18.8619C17.4283 18.976 17.2044 19.0358 16.9769 19.0358C16.7495 19.0358 16.5255 18.976 16.3253 18.8619L0.479004 9.83205V23.4016C0.479004 24.9452 1.05839 26.4256 2.08971 27.517C3.12103 28.6085 4.5198 29.2217 5.97831 29.2217H27.9755C29.434 29.2217 30.8328 28.6085 31.8641 27.517C32.8954 26.4256 33.4748 24.9452 33.4748 23.4016V9.83205Z" fill="#F85C5C"/>
</svg>
