<svg width="28" height="30" viewBox="0 0 28 30" fill="none" xmlns="http://www.w3.org/2000/svg">
<path d="M18.6155 15.0335C18.6155 15.9544 18.3575 16.8546 17.874 17.6203C17.3906 18.386 16.7035 18.9828 15.8996 19.3352C15.0957 19.6876 14.2112 19.7798 13.3577 19.6001C12.5043 19.4205 11.7204 18.977 11.1052 18.3259C10.4899 17.6747 10.0709 16.8451 9.90113 15.9419C9.73137 15.0387 9.8185 14.1025 10.1515 13.2517C10.4845 12.4009 11.0484 11.6738 11.7718 11.1621C12.4953 10.6505 13.3459 10.3774 14.216 10.3774C15.3817 10.3813 16.4986 10.8731 17.3229 11.7454C18.1472 12.6178 18.6119 13.7998 18.6155 15.0335ZM27.9643 8.63141V21.4356C27.9643 23.5967 27.1532 25.6692 25.7093 27.1972C24.2655 28.7253 22.3072 29.5838 20.2653 29.5838H8.1668C6.12489 29.5838 4.16661 28.7253 2.72277 27.1972C1.27892 25.6692 0.467773 23.5967 0.467773 21.4356V8.63141C0.467773 6.47039 1.27892 4.39788 2.72277 2.86981C4.16661 1.34174 6.12489 0.483276 8.1668 0.483276H20.2653C22.3072 0.483276 24.2655 1.34174 25.7093 2.86981C27.1532 4.39788 27.9643 6.47039 27.9643 8.63141ZM20.8152 15.0335C20.8152 13.6522 20.4282 12.3019 19.703 11.1534C18.9779 10.0048 17.9473 9.10965 16.7414 8.58104C15.5356 8.05243 14.2087 7.91412 12.9286 8.1836C11.6485 8.45309 10.4726 9.11826 9.54972 10.095C8.62681 11.0718 7.9983 12.3162 7.74367 13.671C7.48904 15.0258 7.61973 16.43 8.1192 17.7062C8.61868 18.9824 9.46451 20.0732 10.5497 20.8406C11.635 21.608 12.9108 22.0176 14.216 22.0176C15.9662 22.0176 17.6448 21.2818 18.8824 19.972C20.1199 18.6623 20.8152 16.8858 20.8152 15.0335ZM23.0149 7.46739C23.0149 7.12206 22.9182 6.78449 22.7369 6.49735C22.5556 6.21022 22.2979 5.98643 21.9965 5.85427C21.695 5.72212 21.3633 5.68754 21.0433 5.75491C20.7232 5.82228 20.4293 5.98858 20.1986 6.23276C19.9678 6.47695 19.8107 6.78806 19.747 7.12676C19.6834 7.46546 19.7161 7.81653 19.8409 8.13557C19.9658 8.45462 20.1773 8.72731 20.4486 8.91916C20.7199 9.11102 21.0388 9.21342 21.3651 9.21342C21.8027 9.21342 22.2223 9.02947 22.5317 8.70202C22.8411 8.37458 23.0149 7.93047 23.0149 7.46739Z" fill="#DE4E2C"/>
</svg>
