<svg width="34" height="34" viewBox="0 0 34 34" fill="none" xmlns="http://www.w3.org/2000/svg">
<path d="M17 24.5969C16.7167 24.5969 16.451 24.553 16.2031 24.4651C15.9552 24.3773 15.725 24.2264 15.5125 24.0125L7.8625 16.3625C7.47292 15.9729 7.27813 15.4771 7.27813 14.875C7.27813 14.2729 7.47292 13.7771 7.8625 13.3875C8.25208 12.9979 8.75713 12.7946 9.37763 12.7776C9.99813 12.7606 10.5025 12.9462 10.8906 13.3344L14.875 17.3188V2.12501C14.875 1.52292 15.079 1.01788 15.487 0.609883C15.895 0.201883 16.3993 -0.00140931 17 7.35293e-06C17.6021 7.35293e-06 18.1071 0.204008 18.5151 0.612007C18.9231 1.02001 19.1264 1.52434 19.125 2.12501V17.3188L23.1094 13.3344C23.499 12.9448 24.004 12.7585 24.6245 12.7755C25.245 12.7925 25.7493 12.9965 26.1375 13.3875C26.5271 13.7771 26.7219 14.2729 26.7219 14.875C26.7219 15.4771 26.5271 15.9729 26.1375 16.3625L18.4875 24.0125C18.275 24.225 18.0448 24.3759 17.7969 24.4651C17.549 24.5544 17.2833 24.5983 17 24.5969ZM4.25 34C3.08125 34 2.08038 33.5835 1.24738 32.7505C0.414378 31.9175 -0.00141306 30.9173 3.60781e-06 29.75V25.5C3.60781e-06 24.8979 0.204004 24.3929 0.612004 23.9849C1.02 23.5769 1.52434 23.3736 2.125 23.375C2.72709 23.375 3.23213 23.579 3.64013 23.987C4.04813 24.395 4.25142 24.8993 4.25 25.5V29.75H29.75V25.5C29.75 24.8979 29.954 24.3929 30.362 23.9849C30.77 23.5769 31.2743 23.3736 31.875 23.375C32.4771 23.375 32.9821 23.579 33.3901 23.987C33.7981 24.395 34.0014 24.8993 34 25.5V29.75C34 30.9187 33.5835 31.9196 32.7505 32.7526C31.9175 33.5856 30.9173 34.0014 29.75 34H4.25Z" fill="#454545"/>
</svg>
